<svg width="244" height="64" viewBox="0 0 244 64" fill="none" xmlns="http://www.w3.org/2000/svg">
<path d="M108.078 21.9465C108.078 21.776 108.078 19.2959 108.078 19.2959H106.605C106.605 19.2959 106.605 21.7375 106.605 21.8146C106.605 22.2655 106.187 22.5679 105.483 22.5679C104.746 22.5679 104.344 22.2764 104.344 21.809C104.344 21.732 104.344 19.2959 104.344 19.2959H102.854C102.854 19.2959 102.854 21.611 102.854 21.809C102.854 23.1178 103.926 23.6732 105.422 23.6732C107.023 23.6732 108.078 23.1123 108.078 21.9465Z" fill="white"/>
<path d="M113.041 23.6127V22.4634H110.413V19.2959H108.922V23.6127H113.041Z" fill="white"/>
<path d="M117.471 20.3793V19.2959H112.318V20.3793H114.138V23.6127H115.645V20.3793H117.471Z" fill="white"/>
<path d="M119.452 23.6127V19.2959H117.939V23.6127H119.452Z" fill="white"/>
<path d="M126.39 23.6127V19.2959H124.525L123.349 21.8861L122.227 19.2959H120.302V23.6127H121.704V21.2812L122.716 23.6127H123.97L124.993 21.2812V23.6127H126.39Z" fill="white"/>
<path d="M128.726 22.8153H131.057L131.437 23.6127H133.026L130.848 19.2959H129.072L126.768 23.6127H128.324L128.726 22.8153ZM130.59 21.8475H129.21L129.754 20.8081L129.919 20.4123L130.073 20.8027L130.59 21.8475Z" fill="white"/>
<path d="M137.7 20.3793V19.2959H132.547V20.3793H134.368V23.6127H135.874V20.3793H137.7Z" fill="white"/>
<path d="M142.711 23.6127V22.5404H139.616V21.9795H142.584V20.9292H139.616V20.3737H142.673V19.2959H138.164V23.6127H142.711Z" fill="white"/>
<path d="M114.093 25.9075H112.668C112.668 25.9075 111.739 28.624 111.739 28.69C111.739 28.624 110.87 25.9075 110.87 25.9075H109.325C109.325 25.9075 108.461 28.624 108.461 28.69C108.461 28.624 107.527 25.9075 107.527 25.9075H105.926L107.543 30.2243H109.154C109.154 30.2243 110.023 27.6452 110.029 27.5737C110.034 27.6452 110.898 30.2243 110.898 30.2243H112.514L114.093 25.9075Z" fill="white"/>
<path d="M116.041 30.2243V25.9075H114.529V30.2243H116.041Z" fill="white"/>
<path d="M121.924 30.2243V25.9075H120.516V28.2556L118.443 25.9075H116.892V30.2243H118.311V27.8212L120.45 30.2243H121.924Z" fill="white"/>
<path d="M127.815 30.2243V25.9075H126.407V28.2556L124.334 25.9075H122.783V30.2243H124.202V27.8212L126.341 30.2243H127.815Z" fill="white"/>
<path d="M133.222 30.2243V29.152H130.126V28.591H133.096V27.5407H130.126V26.9853H133.184V25.9075H128.675V30.2243H133.222Z" fill="white"/>
<path d="M139.035 27.2217C139.035 26.8314 138.941 26.5508 138.743 26.3474C138.485 26.0725 138.04 25.9075 137.358 25.9075H133.921V30.2243H135.389V28.7011H136.726L137.798 30.2243H139.437L138.134 28.4645C138.425 28.4206 138.662 28.2446 138.815 28.0357C138.953 27.8432 139.035 27.5572 139.035 27.2217ZM137.606 27.3592C137.606 27.4308 137.595 27.5187 137.555 27.5847C137.501 27.6946 137.358 27.7387 137.122 27.7387H135.395V26.9523H137.094C137.325 26.9523 137.479 26.9908 137.555 27.1338C137.595 27.1887 137.606 27.2768 137.606 27.3592Z" fill="white"/>
<path d="M108.698 34.4715C108.698 34.4009 108.698 32.3621 108.698 32.3621H108.183C108.183 32.3621 108.183 34.3925 108.183 34.4383C108.183 34.9282 107.722 35.2065 107.058 35.2065C106.273 35.2065 105.887 34.9075 105.887 34.4341C105.887 34.3884 105.887 32.3621 105.887 32.3621H105.368C105.368 32.3621 105.368 34.3386 105.368 34.4175C105.368 35.2812 106.041 35.6632 107.037 35.6632C108.067 35.6632 108.698 35.2562 108.698 34.4715Z" fill="white"/>
<path d="M112.392 35.6217V35.1442H110.146V32.3621H109.627V35.6217H112.392Z" fill="white"/>
<path d="M115.342 32.8354V32.3621H111.879V32.8354H113.349V35.6217H113.872V32.8354H115.342Z" fill="white"/>
<path d="M119.033 33.2838C119.033 33.0513 118.983 32.8811 118.896 32.744C118.742 32.5156 118.447 32.3621 117.957 32.3621H115.848V35.6217H116.358V34.2472H117.845L118.754 35.6217H119.352L118.368 34.16C118.617 34.131 118.812 33.9897 118.916 33.8071C118.991 33.6825 119.033 33.4998 119.033 33.2838ZM118.518 33.3253C118.518 33.4167 118.497 33.5289 118.46 33.6036C118.393 33.724 118.239 33.7863 117.99 33.7904H116.363C116.363 33.7821 116.363 32.8271 116.363 32.8271H117.895C118.206 32.8271 118.372 32.9019 118.46 33.043C118.497 33.1095 118.518 33.2215 118.518 33.3253Z" fill="white"/>
<path d="M120.51 34.8161H122.541L122.956 35.6217H123.512L121.859 32.3621H121.249L119.542 35.6217H120.086L120.51 34.8161ZM122.325 34.3552H120.734L121.394 33.1053L121.54 32.8022L121.685 33.1053L122.325 34.3552Z" fill="white"/>
<path d="M128.778 35.3103C128.907 35.1607 128.965 34.949 128.965 34.7206C128.965 34.5047 128.903 34.2887 128.774 34.1558C128.646 34.0313 128.438 33.9275 128.21 33.9067C128.342 33.8859 128.446 33.8029 128.517 33.7157C128.629 33.587 128.695 33.3794 128.695 33.1718C128.695 32.9516 128.629 32.7523 128.488 32.6153C128.334 32.4617 128.073 32.3621 127.707 32.3621H125.515V35.6217H127.869C128.309 35.6217 128.616 35.5096 128.778 35.3103ZM128.16 33.2756C128.16 33.4209 128.114 33.5496 128.035 33.6243C127.956 33.7116 127.823 33.7489 127.682 33.7489H126.021V32.8105H127.587C127.778 32.8105 127.923 32.8478 128.023 32.9392C128.11 33.0222 128.16 33.1427 128.16 33.2756ZM128.326 34.9946C128.222 35.1109 128.043 35.1691 127.782 35.1691H126.021V34.2016H127.794C128.035 34.2016 128.201 34.2514 128.301 34.3469C128.392 34.4341 128.43 34.5462 128.43 34.6749C128.43 34.8078 128.401 34.9199 128.326 34.9946Z" fill="white"/>
<path d="M132.735 35.6217V35.1442H130.202V34.214H132.635V33.7406H130.202V32.8354H132.706V32.3621H129.695V35.6217H132.735Z" fill="white"/>
<path d="M136.792 34.6582C136.792 34.1266 136.439 33.8526 135.571 33.7529C135.426 33.7322 135.11 33.699 134.94 33.6782C134.134 33.5827 133.889 33.4748 133.889 33.1966C133.889 32.9267 134.159 32.773 134.973 32.773C135.604 32.773 135.928 32.8976 136.09 33.1218C136.136 33.1841 136.161 33.2589 136.173 33.3169H136.729C136.713 33.2214 136.675 33.0885 136.617 32.9806C136.393 32.5945 135.933 32.3162 134.973 32.3162C133.827 32.3121 133.353 32.7274 133.353 33.2422C133.353 33.7571 133.723 34.0187 134.682 34.1309C134.848 34.1516 135.143 34.1848 135.289 34.2015C136.032 34.2927 136.265 34.4049 136.265 34.7163C136.265 35.0029 135.999 35.2105 135.147 35.2105C134.45 35.2105 134.076 35.0859 133.926 34.8451C133.881 34.7786 133.852 34.6748 133.848 34.6042H133.299C133.312 34.7537 133.353 34.9156 133.428 35.0444C133.644 35.4389 134.151 35.6673 135.131 35.6673C136.302 35.6673 136.792 35.2893 136.792 34.6582Z" fill="white"/>
<path d="M140.516 32.8354V32.3621H137.053V32.8354H138.522V35.6217H139.046V32.8354H140.516Z" fill="white"/>
<path d="M103.898 38.4549C103.898 38.1227 103.832 37.8984 103.719 37.7282C103.562 37.4831 103.254 37.3545 102.719 37.3545H100.659V40.6141H101.174V39.551C101.174 39.551 102.627 39.551 102.698 39.551C103.2 39.5469 103.545 39.4307 103.728 39.1649C103.844 39.003 103.898 38.7704 103.898 38.4549ZM103.375 38.4549C103.375 38.6209 103.358 38.7455 103.304 38.8286C103.209 38.9822 103.013 39.0777 102.611 39.0777C102.573 39.0777 101.174 39.0777 101.174 39.0777V37.8196H102.627C103.005 37.8196 103.2 37.9067 103.304 38.0769C103.354 38.1517 103.375 38.2888 103.375 38.4549Z" fill="white"/>
<path d="M107.657 40.6141V40.1366H105.124V39.2064H107.557V38.7331H105.124V37.8279H107.628V37.3545H104.617V40.6141H107.657Z" fill="white"/>
<path d="M111.617 38.2763C111.617 38.0437 111.568 37.8735 111.48 37.7365C111.327 37.5081 111.032 37.3545 110.542 37.3545H108.433V40.6141H108.943V39.2397H110.43L111.339 40.6141H111.937L110.953 39.1524C111.202 39.1234 111.397 38.9822 111.501 38.7995C111.576 38.6749 111.617 38.4923 111.617 38.2763ZM111.103 38.3178C111.103 38.4091 111.082 38.5213 111.044 38.5961C110.978 38.7164 110.824 38.7787 110.575 38.7828H108.947C108.947 38.7746 108.947 37.8196 108.947 37.8196H110.48C110.791 37.8196 110.957 37.8943 111.044 38.0355C111.082 38.1019 111.103 38.214 111.103 38.3178Z" fill="white"/>
<path d="M115.468 37.8279V37.3545H112.569V40.6141H113.084V39.2272H115.36V38.7414H113.084V37.8279H115.468Z" fill="white"/>
<path d="M117.831 37.2961C117.137 37.2961 116.66 37.4664 116.319 37.8235C116.033 38.1017 115.908 38.4879 115.908 38.9737C115.908 39.5052 116.07 39.9039 116.369 40.1738C116.689 40.4936 117.179 40.6595 117.831 40.6595C118.504 40.6595 119.027 40.4936 119.338 40.1571C119.608 39.8831 119.749 39.4928 119.749 38.9696C119.749 38.463 119.629 38.0768 119.342 37.8027C119.014 37.4622 118.524 37.2961 117.831 37.2961ZM117.831 40.1946C117.374 40.1946 117.05 40.0949 116.805 39.8956C116.556 39.6921 116.436 39.3806 116.436 38.982C116.436 38.6083 116.539 38.2969 116.739 38.11C116.967 37.8941 117.316 37.7654 117.827 37.7654C118.354 37.7654 118.682 37.89 118.927 38.1058C119.135 38.2886 119.226 38.6124 119.226 38.9778C119.226 39.3474 119.131 39.663 118.919 39.854C118.674 40.0824 118.329 40.1946 117.831 40.1946Z" fill="white"/>
<path d="M123.645 38.2763C123.645 38.0437 123.596 37.8735 123.508 37.7365C123.355 37.5081 123.06 37.3545 122.57 37.3545H120.461V40.6141H120.971V39.2397H122.458L123.367 40.6141H123.965L122.981 39.1524C123.23 39.1234 123.425 38.9822 123.529 38.7995C123.604 38.6749 123.645 38.4923 123.645 38.2763ZM123.13 38.3178C123.13 38.4091 123.11 38.5213 123.072 38.5961C123.006 38.7164 122.852 38.7787 122.603 38.7828H120.975C120.975 38.7746 120.975 37.8196 120.975 37.8196H122.508C122.819 37.8196 122.985 37.8943 123.072 38.0355C123.11 38.1019 123.13 38.214 123.13 38.3178Z" fill="white"/>
<path d="M128.612 40.6141V37.3545H127.939L126.598 40.0369L125.282 37.3545H124.596V40.6141H125.091V38.106L126.32 40.6141H126.859L128.118 38.106V40.6141H128.612Z" fill="white"/>
<path d="M130.07 39.8085H132.1L132.516 40.6141H133.072L131.419 37.3545H130.809L129.102 40.6141H129.646L130.07 39.8085ZM131.884 39.3476H130.294L130.954 38.0978L131.1 37.7946L131.245 38.0978L131.884 39.3476Z" fill="white"/>
<path d="M136.813 40.6141V37.3545H136.318V39.8874L134.16 37.3545H133.574V40.6141H134.077V38.0645L136.252 40.6141H136.813Z" fill="white"/>
<path d="M141.293 39.3973H140.752C140.736 39.5467 140.677 39.6963 140.573 39.8083C140.35 40.07 139.993 40.182 139.445 40.182C138.984 40.182 138.49 40.0533 138.252 39.717C138.128 39.5592 138.049 39.3267 138.049 38.9778C138.049 38.6664 138.104 38.4339 138.223 38.2761C138.422 37.9564 138.842 37.7903 139.432 37.7903C140.005 37.7903 140.366 37.948 140.558 38.1681C140.665 38.2844 140.728 38.4215 140.748 38.5833H141.288C141.271 38.4007 141.213 38.1847 141.089 38.002C140.823 37.6075 140.333 37.2961 139.436 37.2961C138.581 37.2961 138.07 37.5702 137.787 37.9812C137.605 38.2179 137.513 38.5501 137.513 38.9737C137.513 39.4471 137.626 39.7959 137.821 40.0409C138.104 40.4271 138.647 40.6595 139.469 40.6595C140.313 40.6595 140.815 40.4063 141.064 40.0035C141.205 39.8083 141.276 39.5758 141.293 39.3973Z" fill="white"/>
<path d="M145.009 40.6141V40.1366H142.475V39.2064H144.909V38.7331H142.475V37.8279H144.98V37.3545H141.969V40.6141H145.009Z" fill="white"/>
<path d="M107.033 43.8521L107.654 45.7634H109.664L108.038 46.9447L108.659 48.8559L107.033 47.6747L105.407 48.8559L106.028 46.9447L104.402 45.7634H106.412L107.033 43.8521Z" fill="white"/>
<path d="M114.203 43.8523L114.836 45.7635H116.887L115.228 46.9448L115.862 48.8561L114.203 47.6748L112.544 48.8561L113.177 46.9448L111.518 45.7635H113.569L114.203 43.8523Z" fill="white"/>
<path d="M121.315 43.8523L121.949 45.7635H124L122.341 46.9448L122.974 48.8561L121.315 47.6748L119.656 48.8561L120.29 46.9448L118.631 45.7635H120.682L121.315 43.8523Z" fill="white"/>
<path d="M128.428 43.8523L129.061 45.7635H131.112L129.453 46.9448L130.087 48.8561L128.428 47.6748L126.769 48.8561L127.402 46.9448L125.743 45.7635H127.794L128.428 43.8523Z" fill="white"/>
<path d="M135.597 43.8523L136.218 45.7635H138.228L136.602 46.9448L137.222 48.8561L135.597 47.6748L133.971 48.8561L134.592 46.9448L132.966 45.7635H134.976L135.597 43.8523Z" fill="white"/>
<path d="M110.517 11.606L110.986 13.0511H112.506L111.276 13.9442L111.746 15.3892L110.517 14.4962L109.287 15.3892L109.757 13.9442L108.528 13.0511H110.047L110.517 11.606Z" fill="white"/>
<path d="M115.937 11.604L116.417 13.0491H117.967L116.713 13.9423L117.192 15.3873L115.937 14.4942L114.683 15.3873L115.162 13.9423L113.908 13.0491H115.458L115.937 11.604Z" fill="white"/>
<path d="M121.315 11.604L121.794 13.0491H123.344L122.09 13.9423L122.569 15.3873L121.315 14.4942L120.06 15.3873L120.54 13.9423L119.285 13.0491H120.836L121.315 11.604Z" fill="white"/>
<path d="M126.693 11.604L127.172 13.0491H128.723L127.469 13.9423L127.948 15.3873L126.693 14.4942L125.439 15.3873L125.918 13.9423L124.664 13.0491H126.214L126.693 11.604Z" fill="white"/>
<path d="M132.113 11.604L132.583 13.0491H134.102L132.873 13.9423L133.342 15.3873L132.113 14.4942L130.884 15.3873L131.353 13.9423L130.124 13.0491H131.644L132.113 11.604Z" fill="white"/>
<path fill-rule="evenodd" clip-rule="evenodd" d="M88.8738 37.6164C86.8016 24.6517 92.8492 11.8247 104.956 6.31641L105.068 6.56203C93.0828 12.0148 87.0852 24.7163 89.1402 37.5737C91.4138 51.7983 102.889 60.3293 116.942 60.7406L116.934 61.0104C102.772 60.5959 91.1708 51.9877 88.8738 37.6164Z" fill="white"/>
<path d="M102.331 9.62516C100.094 9.67616 97.4751 10.9379 95.93 12.7704C97.1691 13.9211 99.1627 13.4957 100.597 13.2604C102.645 12.9246 104.823 12.274 106.755 11.3532C105.96 9.66196 103.82 9.59127 102.331 9.62516Z" fill="white"/>
<path d="M100.571 6.86501C99.2461 8.92936 97.6668 10.9811 95.9481 12.7878C94.5101 11.438 95.3781 9.19165 95.965 7.79473C97.0281 5.26351 99.5771 3.08071 102.242 1.96387C102.973 3.62789 101.385 5.59795 100.571 6.86501Z" fill="white"/>
<path d="M95.8563 15.414C93.7613 16.1587 91.9611 18.2551 91.0572 20.3597C92.5636 21.0601 94.2762 20.0486 95.529 19.3752C97.2493 18.4504 99.0044 17.1743 100.385 15.6977C99.1376 14.3812 97.2431 14.9212 95.8563 15.414Z" fill="white"/>
<path d="M93.3172 13.3512C92.8586 15.7057 92.0897 18.1461 91.0799 20.3704C89.3173 19.5391 89.3845 17.1582 89.46 15.6431C89.5888 13.0569 91.0356 10.1078 93.05 8.23364C94.2831 9.55574 93.6093 11.8514 93.3172 13.3512Z" fill="white"/>
<path d="M91.8254 22.8878C90.0797 24.265 89.0216 26.8171 88.7765 29.0961C90.4279 29.2857 91.7478 27.7828 92.73 26.7518C94.0672 25.3479 95.333 23.5871 96.1369 21.745C94.5627 20.8862 92.9624 21.9908 91.8254 22.8878Z" fill="white"/>
<path d="M88.801 21.7252C89.1123 24.1028 89.113 26.6751 88.8016 29.0991C86.8811 28.8632 86.2441 26.5573 85.8678 25.1107C85.2182 22.6137 85.6537 19.3884 86.9192 16.9609C88.5007 17.8364 88.6022 20.2054 88.801 21.7252Z" fill="white"/>
<path d="M90.4553 31.0458C89.0739 33.0693 88.5882 36.2404 89.2094 38.7893C91.0348 38.3571 91.9397 36.2904 92.6663 34.8309C93.6319 32.891 94.4481 30.6279 94.7403 28.4075C92.7604 27.9955 91.3652 29.7127 90.4553 31.0458Z" fill="white"/>
<path d="M86.8292 30.8412C87.9055 33.333 88.7454 36.0755 89.2368 38.7832C87.1433 39.2329 85.6365 37.0346 84.7612 35.5769C83.2027 32.9822 82.7487 29.3851 83.3196 26.281C85.2358 26.6652 86.1734 29.3234 86.8292 30.8412Z" fill="white"/>
<path d="M91.4217 39.8496C90.68 42.3043 91.1955 45.6414 92.6972 47.9492C94.3475 46.8747 94.5759 44.5099 94.8098 42.8144C95.1182 40.5769 95.2633 38.0982 94.8802 35.7781C92.7695 36.0475 91.9171 38.2097 91.4217 39.8496Z" fill="white"/>
<path d="M87.7537 40.9006C89.6056 43.0254 91.3138 45.4482 92.7226 47.9334C90.8119 49.1262 88.5698 47.4966 87.21 46.3434C84.7977 44.2978 83.2313 40.8208 82.86 37.5429C84.8675 37.2731 86.6367 39.6186 87.7537 40.9006Z" fill="white"/>
<path d="M95.3135 48.2047C95.4726 51.062 97.3329 54.0602 99.8097 55.7667C101.006 54.1291 100.256 51.6199 99.8481 49.8684C99.2988 47.5102 98.5385 45.0546 97.4087 42.8757C95.4385 43.9169 95.2087 46.323 95.3135 48.2047Z" fill="white"/>
<path d="M91.9825 50.6182C94.6659 52.1093 97.3416 53.8688 99.8295 55.7411C98.3396 57.703 95.3616 56.9207 93.5156 56.2901C90.2625 55.1788 87.3623 52.2494 85.8475 48.9948C87.7681 48.0055 90.3973 49.7373 91.9825 50.6182Z" fill="white"/>
<path d="M102.956 55.185C104.567 58.1243 108.237 60.0418 111.693 60.5034C112.065 58.3666 109.753 56.2509 108.493 54.8668C106.7 52.8963 104.83 50.8514 102.735 49.1477C101.165 50.9707 101.995 53.4302 102.956 55.185Z" fill="white"/>
<path d="M100.656 58.91C104.317 59.2907 108.04 59.8386 111.699 60.4705C111.35 63.1666 107.072 63.6017 105.129 63.7609C101.147 64.0872 96.7165 62.4864 93.6318 59.7914C95.1639 57.9886 98.7062 58.7074 100.656 58.91Z" fill="white"/>
<path d="M107.708 4.05349C105.25 4.75469 102.373 6.08495 100.951 8.54056C103.531 8.25936 106.067 7.34139 108.546 6.64198C111.324 5.85845 114.249 5.27246 116.938 4.19096C113.993 3.0127 110.521 3.25084 107.708 4.05349Z" fill="white"/>
<path fill-rule="evenodd" clip-rule="evenodd" d="M155.26 37.5737C157.314 24.7163 151.317 12.0151 139.332 6.56203L139.444 6.31641C151.551 11.8248 157.599 24.6517 155.526 37.6164C153.23 51.9877 141.628 60.5959 127.466 61.0104L127.458 60.7406C141.511 60.3293 152.986 51.7983 155.26 37.5737Z" fill="white"/>
<path d="M142.069 9.62516C144.306 9.67616 146.924 10.9379 148.47 12.7704C147.231 13.9211 145.237 13.4957 143.803 13.2604C141.755 12.9246 139.577 12.274 137.645 11.3532C138.439 9.66196 140.579 9.59127 142.069 9.62516Z" fill="white"/>
<path d="M143.828 6.86501C145.154 8.92936 146.733 10.9811 148.451 12.7878C149.89 11.438 149.022 9.19165 148.434 7.79473C147.372 5.26351 144.823 3.08071 142.157 1.96387C141.426 3.62789 143.015 5.59795 143.828 6.86501Z" fill="white"/>
<path d="M148.544 15.414C150.639 16.1587 152.439 18.2551 153.342 20.3597C151.836 21.0601 150.123 20.0486 148.871 19.3752C147.15 18.4504 145.395 17.1743 144.015 15.6977C145.262 14.3812 147.157 14.9212 148.544 15.414Z" fill="white"/>
<path d="M151.083 13.3512C151.542 15.7057 152.31 18.1461 153.32 20.3704C155.083 19.5391 155.016 17.1582 154.94 15.6431C154.811 13.0569 153.365 10.1078 151.35 8.23364C150.117 9.55574 150.791 11.8514 151.083 13.3512Z" fill="white"/>
<path d="M152.574 22.8878C154.32 24.265 155.378 26.8171 155.623 29.0961C153.972 29.2857 152.653 27.7828 151.671 26.7518C150.333 25.3479 149.067 23.5871 148.264 21.745C149.837 20.8862 151.438 21.9908 152.574 22.8878Z" fill="white"/>
<path d="M155.6 21.7252C155.288 24.1026 155.288 26.6751 155.599 29.0991C157.519 28.8632 158.157 26.5573 158.533 25.1107C159.183 22.6137 158.746 19.3884 157.481 16.9609C155.9 17.8364 155.798 20.2054 155.6 21.7252Z" fill="white"/>
<path d="M153.945 31.0458C155.326 33.0693 155.811 36.2404 155.191 38.7893C153.365 38.3571 152.46 36.2905 151.733 34.8309C150.768 32.891 149.951 30.6279 149.659 28.4075C151.639 27.9955 153.035 29.7127 153.945 31.0458Z" fill="white"/>
<path d="M157.571 30.8412C156.495 33.333 155.655 36.0755 155.164 38.7832C157.256 39.2329 158.763 37.0346 159.639 35.5769C161.197 32.9822 161.651 29.3851 161.081 26.281C159.165 26.6652 158.226 29.3234 157.571 30.8412Z" fill="white"/>
<path d="M152.978 39.8496C153.72 42.3043 153.205 45.6414 151.703 47.9492C150.053 46.8747 149.824 44.5099 149.59 42.8144C149.282 40.5769 149.137 38.0982 149.519 35.7781C151.63 36.0475 152.482 38.2097 152.978 39.8496Z" fill="white"/>
<path d="M156.645 40.9006C154.794 43.0256 153.086 45.4482 151.677 47.9334C153.587 49.1262 155.83 47.4966 157.19 46.3434C159.602 44.2978 161.169 40.8208 161.54 37.5429C159.532 37.2731 157.763 39.6186 156.645 40.9006Z" fill="white"/>
<path d="M149.085 48.2047C148.926 51.062 147.066 54.0602 144.59 55.7667C143.393 54.1291 144.144 51.62 144.551 49.8684C145.1 47.5102 145.861 45.0546 146.99 42.8757C148.961 43.9169 149.19 46.323 149.085 48.2047Z" fill="white"/>
<path d="M152.417 50.6182C149.734 52.1093 147.059 53.8688 144.571 55.7411C146.061 57.703 149.038 56.9207 150.884 56.2901C154.138 55.1788 157.038 52.2494 158.553 48.9948C156.632 48.0055 154.002 49.7373 152.417 50.6182Z" fill="white"/>
<path d="M141.444 55.185C139.833 58.1243 136.163 60.0418 132.706 60.5034C132.334 58.3666 134.646 56.2509 135.907 54.8668C137.7 52.8963 139.569 50.8514 141.665 49.1477C143.236 50.9707 142.404 53.4302 141.444 55.185Z" fill="white"/>
<path d="M143.743 58.91C140.082 59.2907 136.36 59.8386 132.7 60.4705C133.05 63.1666 137.329 63.6017 139.27 63.7609C143.253 64.0872 147.684 62.4864 150.768 59.7914C149.236 57.9886 145.694 58.7074 143.743 58.91Z" fill="white"/>
<path d="M136.692 4.05349C139.15 4.75469 142.028 6.08495 143.448 8.54056C140.869 8.25936 138.333 7.34139 135.853 6.64198C133.076 5.85845 130.151 5.27246 127.462 4.19096C130.407 3.0127 133.879 3.25084 136.692 4.05349Z" fill="white"/>
<path d="M123.799 2.78277L122.538 0L121.3 2.73099L118.422 0.946718L120.271 4.8328H124.87L126.653 0.946718L123.799 2.78277Z" fill="white"/>
<path d="M124.841 5.43677H120.234V6.11649H124.841V5.43677Z" fill="white"/>
<path d="M122.867 58.0198L123.609 60.304H126.011L124.068 61.7157L124.81 64L122.867 62.5883L120.924 64L121.666 61.7157L119.723 60.304H122.124L122.867 58.0198Z" fill="white"/>
</svg>
