<svg width="80" height="64" viewBox="0 0 80 64" fill="none" xmlns="http://www.w3.org/2000/svg">
<path d="M26.0783 21.9465C26.0783 21.776 26.0783 19.2959 26.0783 19.2959H24.6045C24.6045 19.2959 24.6045 21.7375 24.6045 21.8146C24.6045 22.2655 24.1867 22.5679 23.4828 22.5679C22.7459 22.5679 22.3444 22.2764 22.3444 21.809C22.3444 21.732 22.3444 19.2959 22.3444 19.2959H20.8541C20.8541 19.2959 20.8541 21.611 20.8541 21.809C20.8541 23.1178 21.9265 23.6732 23.4223 23.6732C25.0225 23.6732 26.0783 23.1123 26.0783 21.9465Z" fill="white"/>
<path d="M31.0413 23.6127V22.4634H28.4127V19.2959H26.9224V23.6127H31.0413Z" fill="white"/>
<path d="M35.4706 20.3793V19.2959H30.3179V20.3793H32.138V23.6127H33.6448V20.3793H35.4706Z" fill="white"/>
<path d="M37.4517 23.6127V19.2959H35.9395V23.6127H37.4517Z" fill="white"/>
<path d="M44.3897 23.6127V19.2959H42.5254L41.3486 21.8861L40.2269 19.2959H38.3021V23.6127H39.7044V21.2812L40.7162 23.6127H41.9701L42.9929 21.2812V23.6127H44.3897Z" fill="white"/>
<path d="M46.7256 22.8153H49.0573L49.4368 23.6127H51.026L48.8484 19.2959H47.0722L44.768 23.6127H46.3242L46.7256 22.8153ZM48.5899 21.8475H47.2096L47.754 20.8081L47.919 20.4123L48.073 20.8027L48.5899 21.8475Z" fill="white"/>
<path d="M55.6999 20.3793V19.2959H50.5474V20.3793H52.3676V23.6127H53.8745V20.3793H55.6999Z" fill="white"/>
<path d="M60.7109 23.6127V22.5404H57.6159V21.9795H60.5845V20.9292H57.6159V20.3737H60.6728V19.2959H56.1641V23.6127H60.7109Z" fill="white"/>
<path d="M32.0926 25.9075H30.6683C30.6683 25.9075 29.7389 28.624 29.7389 28.69C29.7389 28.624 28.87 25.9075 28.87 25.9075H27.3248C27.3248 25.9075 26.4614 28.624 26.4614 28.69C26.4614 28.624 25.5265 25.9075 25.5265 25.9075H23.9263L25.5431 30.2243H27.1543C27.1543 30.2243 28.0232 27.6452 28.0287 27.5737C28.0342 27.6452 28.8975 30.2243 28.8975 30.2243H30.5143L32.0926 25.9075Z" fill="white"/>
<path d="M34.0415 30.2243V25.9075H32.5292V30.2243H34.0415Z" fill="white"/>
<path d="M39.9237 30.2243V25.9075H38.5159V28.2556L36.4427 25.9075H34.8919V30.2243H36.3108V27.8212L38.4499 30.2243H39.9237Z" fill="white"/>
<path d="M45.8149 30.2243V25.9075H44.4072V28.2556L42.334 25.9075H40.7833V30.2243H42.202V27.8212L44.3412 30.2243H45.8149Z" fill="white"/>
<path d="M51.2224 30.2243V29.152H48.1265V28.591H51.0959V27.5407H48.1265V26.9853H51.1839V25.9075H46.6746V30.2243H51.2224Z" fill="white"/>
<path d="M57.0353 27.2217C57.0353 26.8314 56.9413 26.5508 56.7434 26.3474C56.485 26.0725 56.0398 25.9075 55.3575 25.9075H51.921V30.2243H53.3892V28.7011H54.7255L55.7982 30.2243H57.4368L56.1338 28.4645C56.4246 28.4206 56.6617 28.2446 56.8149 28.0357C56.9525 27.8432 57.0353 27.5572 57.0353 27.2217ZM55.6058 27.3592C55.6058 27.4308 55.5946 27.5187 55.5555 27.5847C55.5007 27.6946 55.3575 27.7387 55.1215 27.7387H53.3947V26.9523H55.0935C55.3251 26.9523 55.4794 26.9908 55.5555 27.1338C55.5946 27.1887 55.6058 27.2768 55.6058 27.3592Z" fill="white"/>
<path d="M26.6982 34.4715C26.6982 34.4009 26.6982 32.3621 26.6982 32.3621H26.1834C26.1834 32.3621 26.1834 34.3925 26.1834 34.4383C26.1834 34.9282 25.7224 35.2065 25.058 35.2065C24.2733 35.2065 23.887 34.9075 23.887 34.4341C23.887 34.3884 23.887 32.3621 23.887 32.3621H23.368C23.368 32.3621 23.368 34.3386 23.368 34.4175C23.368 35.2812 24.0407 35.6632 25.0373 35.6632C26.067 35.6632 26.6982 35.2562 26.6982 34.4715Z" fill="white"/>
<path d="M30.3924 35.6217V35.1442H28.1459V32.3621H27.627V35.6217H30.3924Z" fill="white"/>
<path d="M33.342 32.8354V32.3621H29.8788V32.8354H31.3487V35.6217H31.872V32.8354H33.342Z" fill="white"/>
<path d="M37.0325 33.2838C37.0325 33.0513 36.9827 32.8811 36.8955 32.744C36.7418 32.5156 36.447 32.3621 35.9571 32.3621H33.8477V35.6217H34.3584V34.2472H35.8449L36.7542 35.6217H37.3522L36.3681 34.16C36.6172 34.131 36.8124 33.9897 36.9162 33.8071C36.991 33.6825 37.0325 33.4998 37.0325 33.2838ZM36.5176 33.3253C36.5176 33.4167 36.4969 33.5289 36.4595 33.6036C36.3931 33.724 36.2394 33.7863 35.9903 33.7904H34.3625C34.3625 33.7821 34.3625 32.8271 34.3625 32.8271H35.8948C36.2062 32.8271 36.3723 32.9019 36.4595 33.043C36.4969 33.1095 36.5176 33.2215 36.5176 33.3253Z" fill="white"/>
<path d="M38.5099 34.8161H40.5405L40.9557 35.6217H41.5122L39.8594 32.3621H39.2491L37.5424 35.6217H38.0864L38.5099 34.8161ZM40.3245 34.3552H38.7342L39.3944 33.1053L39.5398 32.8022L39.6851 33.1053L40.3245 34.3552Z" fill="white"/>
<path d="M46.7784 35.3103C46.9072 35.1607 46.9653 34.949 46.9653 34.7206C46.9653 34.5047 46.903 34.2887 46.7743 34.1558C46.6456 34.0313 46.438 33.9275 46.2096 33.9067C46.3424 33.8859 46.4462 33.8029 46.5168 33.7157C46.629 33.587 46.6953 33.3794 46.6953 33.1718C46.6953 32.9516 46.629 32.7523 46.4877 32.6153C46.3342 32.4617 46.0725 32.3621 45.7071 32.3621H43.5146V35.6217H45.8691C46.3092 35.6217 46.6165 35.5096 46.7784 35.3103ZM46.1597 33.2756C46.1597 33.4209 46.114 33.5496 46.0352 33.6243C45.9562 33.7116 45.8233 33.7489 45.6822 33.7489H44.0212V32.8105H45.5867C45.7777 32.8105 45.923 32.8478 46.0227 32.9392C46.1099 33.0222 46.1597 33.1427 46.1597 33.2756ZM46.3258 34.9946C46.222 35.1109 46.0435 35.1691 45.7818 35.1691H44.0212V34.2016H45.7944C46.0352 34.2016 46.2013 34.2514 46.3009 34.3469C46.3922 34.4341 46.4297 34.5462 46.4297 34.6749C46.4297 34.8078 46.4006 34.9199 46.3258 34.9946Z" fill="white"/>
<path d="M50.735 35.6217V35.1442H48.2021V34.214H50.6353V33.7406H48.2021V32.8354H50.7059V32.3621H47.6954V35.6217H50.735Z" fill="white"/>
<path d="M54.7916 34.6582C54.7916 34.1266 54.4392 33.8526 53.5713 33.7529C53.4255 33.7322 53.1099 33.699 52.9396 33.6782C52.1341 33.5827 51.8891 33.4748 51.8891 33.1966C51.8891 32.9267 52.159 32.773 52.9729 32.773C53.6037 32.773 53.9281 32.8976 54.0903 33.1218C54.1361 33.1841 54.1607 33.2589 54.173 33.3169H54.7289C54.7133 33.2214 54.6753 33.0885 54.6171 32.9806C54.3934 32.5945 53.9326 32.3162 52.9729 32.3162C51.8268 32.3121 51.3535 32.7274 51.3535 33.2422C51.3535 33.7571 51.723 34.0187 52.6823 34.1309C52.8484 34.1516 53.1431 34.1848 53.2885 34.2015C54.0321 34.2927 54.2648 34.4049 54.2648 34.7163C54.2648 35.0029 53.9985 35.2105 53.1472 35.2105C52.4497 35.2105 52.0759 35.0859 51.9265 34.8451C51.8808 34.7786 51.8518 34.6748 51.8476 34.6042H51.2994C51.312 34.7537 51.3535 34.9156 51.4282 35.0444C51.6442 35.4389 52.1507 35.6673 53.1307 35.6673C54.3017 35.6673 54.7916 35.2893 54.7916 34.6582Z" fill="white"/>
<path d="M58.5156 32.8354V32.3621H55.0526V32.8354H56.5224V35.6217H57.0458V32.8354H58.5156Z" fill="white"/>
<path d="M21.898 38.4549C21.898 38.1227 21.8316 37.8984 21.7194 37.7282C21.5617 37.4831 21.2543 37.3545 20.7187 37.3545H18.6591V40.6141H19.174V39.551C19.174 39.551 20.6274 39.551 20.698 39.551C21.2004 39.5469 21.545 39.4307 21.7278 39.1649C21.844 39.003 21.898 38.7704 21.898 38.4549ZM21.3748 38.4549C21.3748 38.6209 21.3581 38.7455 21.3042 38.8286C21.2087 38.9822 21.0135 39.0777 20.6107 39.0777C20.5734 39.0777 19.174 39.0777 19.174 39.0777V37.8196H20.6274C21.0052 37.8196 21.2004 37.9067 21.3042 38.0769C21.354 38.1517 21.3748 38.2888 21.3748 38.4549Z" fill="white"/>
<path d="M25.6567 40.6141V40.1366H23.1237V39.2064H25.5571V38.7331H23.1237V37.8279H25.6276V37.3545H22.6171V40.6141H25.6567Z" fill="white"/>
<path d="M29.6174 38.2763C29.6174 38.0437 29.5677 37.8735 29.4804 37.7365C29.3267 37.5081 29.032 37.3545 28.542 37.3545H26.4326V40.6141H26.9433V39.2397H28.4299L29.3393 40.6141H29.9372L28.953 39.1524C29.2022 39.1234 29.3974 38.9822 29.5012 38.7995C29.5759 38.6749 29.6174 38.4923 29.6174 38.2763ZM29.1026 38.3178C29.1026 38.4091 29.0818 38.5213 29.0444 38.5961C28.978 38.7164 28.8243 38.7787 28.5752 38.7828H26.9474C26.9474 38.7746 26.9474 37.8196 26.9474 37.8196H28.4797C28.7911 37.8196 28.9572 37.8943 29.0444 38.0355C29.0818 38.1019 29.1026 38.214 29.1026 38.3178Z" fill="white"/>
<path d="M33.4675 37.8279V37.3545H30.5691V40.6141H31.0839V39.2272H33.3596V38.7414H31.0839V37.8279H33.4675Z" fill="white"/>
<path d="M35.8309 37.2961C35.1374 37.2961 34.6599 37.4664 34.3193 37.8235C34.0329 38.1017 33.9083 38.4879 33.9083 38.9737C33.9083 39.5052 34.0702 39.9039 34.3692 40.1738C34.689 40.4936 35.1789 40.6595 35.8309 40.6595C36.5036 40.6595 37.0267 40.4936 37.3382 40.1571C37.6081 39.8831 37.7493 39.4928 37.7493 38.9696C37.7493 38.463 37.6288 38.0768 37.3424 37.8027C37.0143 37.4622 36.5243 37.2961 35.8309 37.2961ZM35.8309 40.1946C35.3741 40.1946 35.0502 40.0949 34.8052 39.8956C34.5561 39.6921 34.4356 39.3806 34.4356 38.982C34.4356 38.6083 34.5394 38.2969 34.7388 38.11C34.9672 37.8941 35.3159 37.7654 35.8268 37.7654C36.354 37.7654 36.6821 37.89 36.927 38.1058C37.1348 38.2886 37.226 38.6124 37.226 38.9778C37.226 39.3474 37.1306 39.663 36.9188 39.854C36.6738 40.0824 36.3292 40.1946 35.8309 40.1946Z" fill="white"/>
<path d="M41.6454 38.2763C41.6454 38.0437 41.5955 37.8735 41.5084 37.7365C41.3547 37.5081 41.0598 37.3545 40.5699 37.3545H38.4605V40.6141H38.9712V39.2397H40.4577L41.3672 40.6141H41.9651L40.981 39.1524C41.2301 39.1234 41.4253 38.9822 41.5291 38.7995C41.6039 38.6749 41.6454 38.4923 41.6454 38.2763ZM41.1304 38.3178C41.1304 38.4091 41.1097 38.5213 41.0724 38.5961C41.0059 38.7164 40.8522 38.7787 40.6032 38.7828H38.9754C38.9754 38.7746 38.9754 37.8196 38.9754 37.8196H40.5076C40.819 37.8196 40.9851 37.8943 41.0724 38.0355C41.1097 38.1019 41.1304 38.214 41.1304 38.3178Z" fill="white"/>
<path d="M46.6119 40.6141V37.3545H45.9392L44.598 40.0369L43.2816 37.3545H42.5965V40.6141H43.0907V38.106L44.3197 40.6141H44.8595L46.1177 38.106V40.6141H46.6119Z" fill="white"/>
<path d="M48.0698 39.8085H50.1004L50.5156 40.6141H51.072L49.4193 37.3545H48.8089L47.1023 40.6141H47.6462L48.0698 39.8085ZM49.8844 39.3476H48.2941L48.9542 38.0978L49.0996 37.7946L49.2449 38.0978L49.8844 39.3476Z" fill="white"/>
<path d="M54.8128 40.6141V37.3545H54.3185V39.8874L52.1597 37.3545H51.5742V40.6141H52.0766V38.0645L54.2525 40.6141H54.8128Z" fill="white"/>
<path d="M59.2926 39.3973H58.7523C58.7355 39.5467 58.6774 39.6963 58.5733 39.8083C58.3496 40.07 57.9928 40.182 57.4448 40.182C56.9839 40.182 56.4895 40.0533 56.2524 39.717C56.1282 39.5592 56.0488 39.3267 56.0488 38.9778C56.0488 38.6664 56.1036 38.4339 56.2233 38.2761C56.4224 37.9564 56.8419 37.7903 57.4324 37.7903C58.0051 37.7903 58.3664 37.948 58.5577 38.1681C58.6651 38.2844 58.7277 38.4215 58.7478 38.5833H59.2881C59.2713 38.4007 59.2131 38.1847 59.089 38.002C58.8228 37.6075 58.3329 37.2961 57.4358 37.2961C56.5813 37.2961 56.0701 37.5702 55.7871 37.9812C55.6048 38.2179 55.5131 38.5501 55.5131 38.9737C55.5131 39.4471 55.626 39.7959 55.8207 40.0409C56.1036 40.4271 56.6472 40.6595 57.4694 40.6595C58.3127 40.6595 58.8149 40.4063 59.0644 40.0035C59.2053 39.8083 59.2758 39.5758 59.2926 39.3973Z" fill="white"/>
<path d="M63.0087 40.6141V40.1366H60.4753V39.2064H62.9092V38.7331H60.4753V37.8279H62.9796V37.3545H59.9686V40.6141H63.0087Z" fill="white"/>
<path d="M25.0331 43.8521L25.6541 45.7634H27.6638L26.038 46.9447L26.659 48.8559L25.0331 47.6747L23.4072 48.8559L24.0284 46.9447L22.4025 45.7634H24.4121L25.0331 43.8521Z" fill="white"/>
<path d="M32.2027 43.8523L32.8363 45.7635H34.887L33.228 46.9448L33.8616 48.8561L32.2027 47.6748L30.5437 48.8561L31.1773 46.9448L29.5183 45.7635H31.569L32.2027 43.8523Z" fill="white"/>
<path d="M39.3152 43.8523L39.949 45.7635H41.9995L40.3406 46.9448L40.9743 48.8561L39.3152 47.6748L37.6562 48.8561L38.2899 46.9448L36.6309 45.7635H38.6816L39.3152 43.8523Z" fill="white"/>
<path d="M46.4277 43.8523L47.0614 45.7635H49.1121L47.4531 46.9448L48.0867 48.8561L46.4277 47.6748L44.7688 48.8561L45.4024 46.9448L43.7434 45.7635H45.7941L46.4277 43.8523Z" fill="white"/>
<path d="M53.5971 43.8523L54.2179 45.7635H56.2278L54.6015 46.9448L55.2223 48.8561L53.5971 47.6748L51.9711 48.8561L52.5922 46.9448L50.9663 45.7635H52.976L53.5971 43.8523Z" fill="white"/>
<path d="M28.5165 11.606L28.9861 13.0511H30.5056L29.2764 13.9442L29.7459 15.3892L28.5165 14.4962L27.2873 15.3892L27.7568 13.9442L26.5276 13.0511H28.0471L28.5165 11.606Z" fill="white"/>
<path d="M33.9374 11.604L34.4166 13.0491H35.9669L34.7126 13.9423L35.1917 15.3873L33.9374 14.4942L32.683 15.3873L33.1621 13.9423L31.9077 13.0491H33.4582L33.9374 11.604Z" fill="white"/>
<path d="M39.3148 11.604L39.7939 13.0491H41.3444L40.0901 13.9423L40.5691 15.3873L39.3148 14.4942L38.0604 15.3873L38.5396 13.9423L37.2852 13.0491H38.8357L39.3148 11.604Z" fill="white"/>
<path d="M44.6934 11.604L45.1724 13.0491H46.7229L45.4686 13.9423L45.9477 15.3873L44.6934 14.4942L43.4389 15.3873L43.9181 13.9423L42.6637 13.0491H44.2142L44.6934 11.604Z" fill="white"/>
<path d="M50.1131 11.604L50.5827 13.0491H52.1022L50.8729 13.9423L51.3425 15.3873L50.1131 14.4942L48.8838 15.3873L49.3534 13.9423L48.1241 13.0491H49.6435L50.1131 11.604Z" fill="white"/>
<path fill-rule="evenodd" clip-rule="evenodd" d="M6.87378 37.6164C4.80161 24.6517 10.8492 11.8247 22.9562 6.31641L23.068 6.56203C11.0828 12.0148 5.08515 24.7163 7.14021 37.5737C9.41383 51.7983 20.8892 60.3293 34.9418 60.7406L34.9338 61.0104C20.7718 60.5959 9.17078 51.9877 6.87378 37.6164Z" fill="white"/>
<path d="M20.3311 9.62516C18.0937 9.67616 15.4751 10.9379 13.93 12.7704C15.1691 13.9211 17.1627 13.4957 18.5975 13.2604C20.6452 12.9246 22.8227 12.274 24.7549 11.3532C23.9605 9.66196 21.8203 9.59127 20.3311 9.62516Z" fill="white"/>
<path d="M18.5714 6.86501C17.2461 8.92936 15.6668 10.9811 13.9481 12.7878C12.5101 11.438 13.3781 9.19165 13.965 7.79473C15.0281 5.26351 17.5771 3.08071 20.242 1.96387C20.9734 3.62789 19.3848 5.59795 18.5714 6.86501Z" fill="white"/>
<path d="M13.8563 15.414C11.7613 16.1587 9.96107 18.2551 9.05719 20.3597C10.5636 21.0601 12.2762 20.0486 13.529 19.3752C15.2493 18.4504 17.0044 17.1743 18.3853 15.6977C17.1376 14.3812 15.2431 14.9212 13.8563 15.414Z" fill="white"/>
<path d="M11.3172 13.3512C10.8586 15.7057 10.0897 18.1461 9.07992 20.3704C7.31735 19.5391 7.38446 17.1582 7.45996 15.6431C7.58881 13.0569 9.03562 10.1078 11.05 8.23364C12.2831 9.55574 11.6093 11.8514 11.3172 13.3512Z" fill="white"/>
<path d="M9.82536 22.8878C8.07968 24.265 7.02156 26.8171 6.77649 29.0961C8.42788 29.2857 9.74784 27.7828 10.73 26.7518C12.0672 25.3479 13.333 23.5871 14.1369 21.745C12.5627 20.8862 10.9624 21.9908 9.82536 22.8878Z" fill="white"/>
<path d="M6.80103 21.7252C7.11232 24.1028 7.11299 26.6751 6.80159 29.0991C4.88109 28.8632 4.24409 26.5573 3.86782 25.1107C3.21818 22.6137 3.65373 19.3884 4.91923 16.9609C6.50071 17.8364 6.60216 20.2054 6.80103 21.7252Z" fill="white"/>
<path d="M8.45531 31.0458C7.07394 33.0693 6.58816 36.2404 7.20939 38.7893C9.03482 38.3571 9.9397 36.2904 10.6663 34.8309C11.6319 32.891 12.4481 30.6279 12.7403 28.4075C10.7604 27.9955 9.36523 29.7127 8.45531 31.0458Z" fill="white"/>
<path d="M4.82922 30.8412C5.90547 33.333 6.74537 36.0755 7.23684 38.7832C5.1433 39.2329 3.63654 37.0346 2.76119 35.5769C1.20275 32.9822 0.748741 29.3851 1.31963 26.281C3.23578 26.6652 4.17343 29.3234 4.82922 30.8412Z" fill="white"/>
<path d="M9.42166 39.8496C8.67997 42.3043 9.1955 45.6414 10.6972 47.9492C12.3475 46.8747 12.5759 44.5099 12.8098 42.8144C13.1182 40.5769 13.2633 38.0982 12.8802 35.7781C10.7695 36.0475 9.91705 38.2097 9.42166 39.8496Z" fill="white"/>
<path d="M5.75375 40.9006C7.60557 43.0254 9.31378 45.4482 10.7226 47.9334C8.8119 49.1262 6.56982 47.4966 5.21003 46.3434C2.79771 44.2978 1.23133 40.8208 0.859985 37.5429C2.86751 37.2731 4.63668 39.6186 5.75375 40.9006Z" fill="white"/>
<path d="M13.3135 48.2047C13.4726 51.062 15.3329 54.0602 17.8097 55.7667C19.0059 54.1291 18.2561 51.6199 17.8481 49.8684C17.2988 47.5102 16.5385 45.0546 15.4087 42.8757C13.4385 43.9169 13.2087 46.323 13.3135 48.2047Z" fill="white"/>
<path d="M9.98246 50.6182C12.6659 52.1093 15.3416 53.8688 17.8295 55.7411C16.3396 57.703 13.3616 56.9207 11.5156 56.2901C8.26251 55.1788 5.36229 52.2494 3.84747 48.9948C5.76809 48.0055 8.39729 49.7373 9.98246 50.6182Z" fill="white"/>
<path d="M20.9563 55.185C22.5669 58.1243 26.2371 60.0418 29.6933 60.5034C30.0653 58.3666 27.7532 56.2509 26.4933 54.8668C24.6995 52.8963 22.8304 50.8514 20.7347 49.1477C19.1646 50.9707 19.9947 53.4302 20.9563 55.185Z" fill="white"/>
<path d="M18.6563 58.91C22.3174 59.2907 26.0405 59.8386 29.6994 60.4705C29.3501 63.1666 25.0716 63.6017 23.1293 63.7609C19.1468 64.0872 14.7165 62.4864 11.6318 59.7914C13.1639 57.9886 16.7062 58.7074 18.6563 58.91Z" fill="white"/>
<path d="M25.7077 4.05349C23.2497 4.75469 20.3727 6.08495 18.9514 8.54056C21.5312 8.25936 24.0668 7.34139 26.5465 6.64198C29.324 5.85845 32.2486 5.27246 34.9377 4.19096C31.9927 3.0127 28.521 3.25084 25.7077 4.05349Z" fill="white"/>
<path fill-rule="evenodd" clip-rule="evenodd" d="M73.2597 37.5737C75.3144 24.7163 69.3169 12.0151 57.3319 6.56203L57.4438 6.31641C69.5507 11.8248 75.5985 24.6517 73.5259 37.6164C71.2296 51.9877 59.6283 60.5959 45.4662 61.0104L45.4584 60.7406C59.5108 60.3293 70.9857 51.7983 73.2597 37.5737Z" fill="white"/>
<path d="M60.069 9.62516C62.306 9.67616 64.9245 10.9379 66.4703 12.7704C65.2309 13.9211 63.2366 13.4957 61.8027 13.2604C59.7547 12.9246 57.5769 12.274 55.6452 11.3532C56.4394 9.66196 58.5791 9.59127 60.069 9.62516Z" fill="white"/>
<path d="M61.8282 6.86501C63.1537 8.92936 64.733 10.9811 66.4511 12.7878C67.8895 11.438 67.0215 9.19165 66.4343 7.79473C65.3717 5.26351 62.8226 3.08071 60.1572 1.96387C59.4256 3.62789 61.0151 5.59795 61.8282 6.86501Z" fill="white"/>
<path d="M66.5439 15.414C68.6389 16.1587 70.4386 18.2551 71.3424 20.3597C69.8357 21.0601 68.1233 20.0486 66.8705 19.3752C65.1502 18.4504 63.3953 17.1743 62.015 15.6977C63.2622 14.3812 65.1569 14.9212 66.5439 15.414Z" fill="white"/>
<path d="M69.083 13.3512C69.5416 15.7057 70.31 18.1461 71.32 20.3704C73.0828 19.5391 73.0157 17.1582 72.9397 15.6431C72.811 13.0569 71.3648 10.1078 69.3503 8.23364C68.1166 9.55574 68.7911 11.8514 69.083 13.3512Z" fill="white"/>
<path d="M70.5743 22.8878C72.3204 24.265 73.3785 26.8171 73.6234 29.0961C71.9725 29.2857 70.6526 27.7828 69.6706 26.7518C68.3328 25.3479 67.0666 23.5871 66.2635 21.745C67.8373 20.8862 69.4379 21.9908 70.5743 22.8878Z" fill="white"/>
<path d="M73.5999 21.7252C73.2878 24.1026 73.2878 26.6751 73.5988 29.0991C75.5193 28.8632 76.1569 26.5573 76.5327 25.1107C77.1825 22.6137 76.7463 19.3884 75.4813 16.9609C73.8997 17.8364 73.7979 20.2054 73.5999 21.7252Z" fill="white"/>
<path d="M71.9445 31.0458C73.3259 33.0693 73.8114 36.2404 73.1906 38.7893C71.3652 38.3571 70.4603 36.2905 69.7332 34.8309C68.7679 32.891 67.9514 30.6279 67.6595 28.4075C69.6393 27.9955 71.0352 29.7127 71.9445 31.0458Z" fill="white"/>
<path d="M75.5707 30.8412C74.4947 33.333 73.6547 36.0755 73.1636 38.7832C75.2564 39.2329 76.763 37.0346 77.6388 35.5769C79.1969 32.9822 79.6511 29.3851 79.0806 26.281C77.1646 26.6652 76.2262 29.3234 75.5707 30.8412Z" fill="white"/>
<path d="M70.9779 39.8496C71.7195 42.3043 71.205 45.6414 69.7028 47.9492C68.053 46.8747 67.8237 44.5099 67.5899 42.8144C67.2823 40.5769 67.1369 38.0982 67.5195 35.7781C69.6301 36.0475 70.4824 38.2097 70.9779 39.8496Z" fill="white"/>
<path d="M74.6455 40.9006C72.7943 43.0256 71.0863 45.4482 69.677 47.9334C71.5874 49.1262 73.8301 47.4966 75.1902 46.3434C77.6017 44.2978 79.1688 40.8208 79.5401 37.5429C77.5324 37.2731 75.7629 39.6186 74.6455 40.9006Z" fill="white"/>
<path d="M67.0853 48.2047C66.9264 51.062 65.0663 54.0602 62.5899 55.7667C61.3931 54.1291 62.1436 51.62 62.5508 49.8684C63.1 47.5102 63.8606 45.0546 64.9903 42.8757C66.9611 43.9169 67.1904 46.323 67.0853 48.2047Z" fill="white"/>
<path d="M70.4174 50.6182C67.7341 52.1093 65.0586 53.8688 62.571 55.7411C64.0609 57.703 67.0384 56.9207 68.8839 56.2901C72.1377 55.1788 75.038 52.2494 76.5525 48.9948C74.632 48.0055 72.0024 49.7373 70.4174 50.6182Z" fill="white"/>
<path d="M59.4437 55.185C57.833 58.1243 54.1631 60.0418 50.7065 60.5034C50.3344 58.3666 52.6464 56.2509 53.907 54.8668C55.7 52.8963 57.569 50.8514 59.6652 49.1477C61.2356 50.9707 60.4045 53.4302 59.4437 55.185Z" fill="white"/>
<path d="M61.7433 58.91C58.0823 59.2907 54.3599 59.8386 50.7003 60.4705C51.0497 63.1666 55.3285 63.6017 57.2703 63.7609C61.2534 64.0872 65.6838 62.4864 68.7676 59.7914C67.2363 57.9886 63.694 58.7074 61.7433 58.91Z" fill="white"/>
<path d="M54.6923 4.05349C57.1497 4.75469 60.0277 6.08495 61.4482 8.54056C58.8689 8.25936 56.3332 7.34139 53.8534 6.64198C51.0759 5.85845 48.1513 5.27246 45.4622 4.19096C48.4073 3.0127 51.8789 3.25084 54.6923 4.05349Z" fill="white"/>
<path d="M41.7986 2.78277L40.5375 0L39.3001 2.73099L36.4222 0.946718L38.2715 4.8328H42.8704L44.6529 0.946718L41.7986 2.78277Z" fill="white"/>
<path d="M42.8406 5.43677H38.2344V6.11649H42.8406V5.43677Z" fill="white"/>
<path d="M40.8666 58.0198L41.6089 60.304H44.0107L42.0676 61.7157L42.8097 64L40.8666 62.5883L38.9235 64L39.6658 61.7157L37.7227 60.304H40.1245L40.8666 58.0198Z" fill="white"/>
</svg>
