<svg width="135" height="64" viewBox="0 0 135 64" fill="none" xmlns="http://www.w3.org/2000/svg">
<path d="M7.03846 12.6476C6.163 10.4226 6.54306 7.86435 7.34948 5.71271C8.19792 3.44863 9.67529 1.19074 11.8834 0C11.993 2.3859 11.2641 4.74314 10.4678 6.86873C9.75161 8.78059 8.87287 10.8174 7.42182 12.3986C7.19886 13.5966 7.02799 14.7914 6.90782 15.9806C7.38875 14.7243 8.16857 13.5791 9.14159 12.6583C10.3943 11.4727 12.2578 10.5578 14.0071 11.0988C13.4947 13.0325 12.3268 14.886 10.9437 16.1863C9.8551 17.2098 8.41799 18.5212 6.72523 18.5728C6.65551 20.3229 6.69492 22.057 6.83892 23.7675C7.07773 22.5157 7.58939 21.337 8.3287 20.4592C9.34429 19.253 10.8502 17.7793 12.7733 18.0259C12.6683 19.9829 11.8877 21.9881 10.8006 23.4948C9.93668 24.6921 8.79626 26.2182 7.1775 26.6124C7.43671 28.2932 7.79775 29.9461 8.2558 31.5635C8.26021 30.3251 8.53375 29.1095 9.07641 28.1346C9.84118 26.7597 11.0323 25.0452 12.9577 24.9111C13.2399 26.8311 12.8575 28.93 12.0861 30.5993C11.4696 31.9336 10.6476 33.6352 9.14931 34.3392C9.77848 36.0794 10.523 37.7709 11.3767 39.4036C11.077 37.9964 11.089 36.5135 11.4437 35.1793C11.9325 33.3399 13.1458 31.4078 15.0938 30.8471C15.7824 32.8777 15.6874 35.144 15.2874 37.208C14.9582 38.9074 14.3113 40.9033 12.8614 42.0072C13.8093 43.5369 14.858 45.0051 16.0016 46.402C15.3871 45.032 15.0818 43.5336 15.2456 42.1618C15.4843 40.1634 16.0458 38.0256 18.0871 36.9601C19.2452 38.9582 19.5135 41.1998 19.6119 43.4139C19.6914 45.2038 19.4336 47.4115 18.1905 48.8677C19.5579 50.2894 21.0333 51.62 22.6092 52.847C21.5918 51.5419 20.8794 50.0103 20.7285 48.4958C20.5154 46.3558 20.6196 44.0001 22.5187 42.4297C24.1428 44.1261 25.112 46.6243 25.587 48.7941C26.007 50.7126 26.4455 52.9833 25.4454 54.8713C27.451 56.1804 29.592 57.3338 31.8557 58.3105C30.2628 57.1755 28.959 55.6182 28.3378 54.0103C27.5238 51.9026 27.0202 49.3912 28.6059 47.2803C30.7304 48.6411 32.2918 50.9628 33.522 53.0803C34.5776 54.8972 35.6702 57.4049 35.1281 59.5688C36.3814 59.9941 37.6671 60.3675 38.9835 60.6861L38.9052 61.0093C37.5838 60.6894 36.2932 60.3147 35.0348 59.8882C34.1531 62.4937 31.2649 63.3544 28.9292 63.7344C25.6012 64.2758 21.6384 63.2268 18.7972 61.1134C20.2968 58.9942 23.3564 58.7792 25.6634 58.617L25.6935 58.6149C28.2209 58.4373 30.9545 58.6746 33.4961 59.335C30.56 58.2173 27.8126 56.8119 25.2792 55.1598L25.2419 55.2188C23.8537 57.4698 21.0665 57.5576 18.8788 57.4152C15.9101 57.222 12.4827 55.417 10.499 52.9218C12.3649 51.2847 15.1208 51.7429 17.2562 52.0979L17.2665 52.0995C19.6498 52.4957 22.2541 53.36 24.4402 54.6908C24.232 54.5268 24.0281 54.3533 23.8301 54.1714C21.7047 52.656 19.744 50.9609 17.9649 49.1127C17.9442 49.1334 17.9233 49.1539 17.9022 49.1743C16.1722 50.9146 13.6526 50.4589 11.6863 49.8925C9.05505 49.1346 6.32616 46.8481 5.01842 44.2231C7.04493 43.0876 9.46777 44.0233 11.3523 44.7634C13.4207 45.5757 15.6091 46.8752 17.2918 48.5317C17.1184 48.3129 16.9529 48.0843 16.7964 47.8477C15.2324 46.0824 13.8254 44.1922 12.5885 42.1981L12.5265 42.2369C10.5695 43.4999 8.35212 42.5853 6.59474 41.6859C4.21201 40.4665 2.29725 37.7865 1.46989 35.1509C3.58363 34.4739 5.67202 35.8027 7.29546 36.8551C9.07103 38.006 10.8696 39.6475 12.1042 41.53C12.0135 41.3445 11.929 41.1549 11.8512 40.9617C10.665 38.8922 9.65724 36.7196 8.84146 34.4659L8.79943 34.4802L8.79598 34.4814C7.01655 35.1579 5.03496 34.1062 3.74307 32.9528C1.94751 31.3499 0.681938 28.8856 0.385251 26.4781C2.24048 26.2377 3.98835 27.6731 5.18337 28.8973C6.55891 30.3063 7.79347 31.9717 8.55249 33.8214C8.49709 33.6205 8.44955 33.4164 8.40959 33.2102C7.71892 31.0924 7.19569 28.9082 6.85077 26.6753L6.8239 26.6786L6.81481 26.6801C4.93354 26.9941 3.1942 25.5639 2.15504 24.1758C0.697096 22.228 -0.0544746 19.5322 0.1339 17.0888C2.00787 17.2198 3.4348 19.0026 4.36014 20.4447C5.43114 22.1142 6.31927 24.0036 6.70828 25.9802C6.69643 25.8229 6.68941 25.6648 6.68693 25.5061C6.40126 23.2335 6.29943 20.9143 6.39258 18.5664L6.38721 18.5662C4.47452 18.4973 3.06095 16.7214 2.33115 15.1462C1.28689 12.892 1.11877 10.0427 1.81577 7.64138C3.63875 8.15304 4.65504 10.2442 5.25489 11.8538C5.94652 13.7098 6.42924 15.7339 6.43309 17.7464C6.53259 16.058 6.73295 14.3563 7.03846 12.6476Z" fill="white"/>
<path d="M44.7096 8.48218V16.5433C44.7096 20.0888 41.4986 21.7947 36.6318 21.7947C32.0829 21.7947 28.8217 20.1056 28.8217 16.1252V8.48218H33.354V16.1252C33.354 17.5468 34.5747 18.4331 36.8158 18.4331C38.9566 18.4331 40.2276 17.5133 40.2276 16.1419V8.48218H44.7096Z" fill="white"/>
<path d="M59.804 18.1153V21.6107H47.2776V8.48218H51.8099V18.1153H59.804Z" fill="white"/>
<path d="M73.274 11.7769V8.48218H57.6033V11.7769H63.139V21.6107H67.7215V11.7769H73.274Z" fill="white"/>
<path fill-rule="evenodd" clip-rule="evenodd" d="M89.3498 9.82023C89.952 10.439 90.2372 11.292 90.2372 12.4793C90.2372 13.4995 89.9864 14.3692 89.5675 14.9545C89.099 15.59 88.3796 16.1252 87.4936 16.259L91.4581 21.6107H86.4738L83.2121 16.9781H79.1486V21.6107H74.6831V8.48218H85.1358C87.2097 8.48218 88.5643 8.98391 89.3498 9.82023ZM85.738 13.5832C85.8551 13.3824 85.8882 13.1148 85.8882 12.8975C85.8882 12.6465 85.8551 12.3789 85.738 12.2118C85.5037 11.7769 85.0352 11.6599 84.3324 11.6599H79.1652V14.0514H84.4165C85.1358 14.0514 85.5712 13.9176 85.738 13.5832Z" fill="white"/>
<path fill-rule="evenodd" clip-rule="evenodd" d="M97.4914 19.1858H104.583L105.736 21.6107H110.57L103.947 8.48218H98.5455L91.5383 21.6107H96.2705L97.4914 19.1858ZM103.161 16.2422H98.9631L100.619 13.0814L101.121 11.8772L101.59 13.0646L103.161 16.2422Z" fill="white"/>
<path fill-rule="evenodd" clip-rule="evenodd" d="M88.8718 24.083C86.0662 24.083 84.5903 25.4128 84.5903 27.3668C84.5903 29.5723 86.1392 30.6912 88.8718 30.6912C91.88 30.6912 93.1451 29.3939 93.1451 27.3668C93.1451 25.3074 91.7174 24.083 88.8718 24.083ZM88.8718 29.0615C87.2747 29.0615 86.8117 28.4047 86.8117 27.3912C86.8117 26.3939 87.3147 25.7372 88.8636 25.7372C90.5585 25.7372 90.9389 26.475 90.9389 27.3912C90.9389 28.3642 90.4772 29.0615 88.8718 29.0615Z" fill="white"/>
<path d="M80.4319 30.5943V26.824H76.1994V28.1943H78.4616C78.4455 28.2998 78.3643 28.5025 78.2589 28.624C78.0238 28.8998 77.3994 29.143 76.5886 29.143C75.7454 29.143 75.2022 28.924 74.9103 28.5835C74.7157 28.3321 74.6022 27.9754 74.6022 27.4403C74.6022 26.8808 74.7157 26.4998 74.9346 26.2484C75.2508 25.8917 75.7859 25.7376 76.5725 25.7376C77.2779 25.7376 77.7643 25.8997 77.9914 26.1024C78.1374 26.2241 78.2508 26.3944 78.2752 26.5078H80.3751C80.3671 26.3051 80.3022 25.9808 80.1887 25.7457C79.686 24.7241 78.5184 24.116 76.532 24.116C74.8049 24.116 73.6454 24.6429 73.0049 25.4376C72.5832 25.9808 72.3887 26.6619 72.3887 27.424C72.3887 28.2674 72.6156 28.9889 72.9887 29.4674C73.621 30.2863 74.7481 30.6916 76.1022 30.6916C77.2941 30.6916 78.113 30.4079 78.6319 29.9782L78.6887 30.5943H80.4319Z" fill="white"/>
<path d="M58.3444 26.7429C59.9904 26.9212 60.6958 27.5051 60.6958 28.6159C60.6958 29.9618 59.3822 30.6914 56.7957 30.6914C54.3876 30.6914 53.3498 30.0104 52.9524 29.1186C52.8632 28.9077 52.8227 28.6483 52.7983 28.4861H55.1335C55.1498 28.5834 55.2066 28.7293 55.2876 28.8266C55.4822 29.0618 56.0254 29.1996 56.9498 29.1996C58.1417 29.1996 58.4255 29.0293 58.4255 28.7132C58.4255 28.3725 58.1336 28.2996 57.0552 28.1861C56.6255 28.1456 55.9444 28.0807 55.6606 28.0564C53.6012 27.8698 52.839 27.2293 52.839 26.1348C52.839 24.9995 54.1849 24.1321 56.6416 24.1321C58.8228 24.1321 59.8363 24.7807 60.258 25.5915C60.3876 25.8348 60.4687 26.1104 60.4931 26.3049H58.1579C58.1497 26.2158 58.1174 26.1266 58.0282 26.0131C57.8497 25.778 57.3957 25.6239 56.5849 25.6239C55.4417 25.6239 55.1417 25.7617 55.1417 26.0536C55.1417 26.378 55.5228 26.451 56.7957 26.5888C57.2903 26.6293 58.0768 26.7104 58.3444 26.7429Z" fill="white"/>
<path fill-rule="evenodd" clip-rule="evenodd" d="M35.0664 24.773C35.4961 25.1135 35.7393 25.6892 35.7393 26.5243C35.7393 27.2054 35.5691 27.7161 35.2447 28.0729C34.8069 28.5756 34.0852 28.8027 33.1447 28.8108C32.8527 28.8189 30.3555 28.8108 30.3555 28.8108V30.5945H28.1744V24.2297H33.1122C33.988 24.2297 34.6529 24.4081 35.0664 24.773ZM33.4529 27.0188C33.5176 26.9054 33.5502 26.7594 33.5502 26.5567C33.5502 26.346 33.5095 26.1675 33.4366 26.0702C33.2988 25.8675 33.0393 25.7702 32.6177 25.7702H30.3392V27.327H32.6014C33.0555 27.327 33.3231 27.2216 33.4529 27.0188Z" fill="white"/>
<path fill-rule="evenodd" clip-rule="evenodd" d="M43.7181 24.8784C44.0101 25.1784 44.1479 25.5919 44.1479 26.1675C44.1479 26.6621 44.0263 27.0837 43.8236 27.3675C43.5966 27.6756 43.248 27.9351 42.8182 28L44.7398 30.5945H42.3236L40.7425 28.3486H38.7722V30.5945H36.6073V24.2297H41.675C42.6804 24.2297 43.3371 24.473 43.7181 24.8784ZM41.9668 26.7027C42.0236 26.6054 42.0397 26.4756 42.0397 26.3702C42.0397 26.2487 42.0236 26.1189 41.9668 26.0378C41.8533 25.827 41.6263 25.7702 41.2858 25.7702H38.7803V26.9297H41.3263C41.675 26.9297 41.8858 26.8648 41.9668 26.7027Z" fill="white"/>
<path d="M52.1413 30.5945V29.0135H47.5765V28.1864H51.9549V26.6378H47.5765V25.8189H52.0846V24.2297H45.4359V30.5945H52.1413Z" fill="white"/>
<path d="M68.5864 25.827V24.2297H60.9891V25.827H63.6728V30.5945H65.8945V25.827H68.5864Z" fill="white"/>
<path d="M71.5071 24.2297V30.5945H69.2773V24.2297H71.5071Z" fill="white"/>
<path d="M83.7099 24.2297V30.5945H81.4797V24.2297H83.7099Z" fill="white"/>
<path d="M101.748 24.2297V28.1378C101.748 29.8567 100.191 30.6838 97.8315 30.6838C95.6266 30.6838 94.0447 29.8649 94.0447 27.9351V24.2297H96.2426V27.9351C96.2426 28.6242 96.8338 29.054 97.921 29.054C98.9587 29.054 99.5747 28.6081 99.5747 27.9432V24.2297H101.748Z" fill="white"/>
<path d="M110.501 28.6159C110.501 27.5051 109.795 26.9212 108.15 26.7429C107.881 26.7104 107.096 26.6293 106.601 26.5888C105.328 26.451 104.946 26.378 104.946 26.0536C104.946 25.7617 105.247 25.6239 106.39 25.6239C107.201 25.6239 107.655 25.778 107.833 26.0131C107.923 26.1266 107.954 26.2158 107.963 26.3049H110.298C110.274 26.1104 110.192 25.8348 110.063 25.5915C109.641 24.7807 108.628 24.1321 106.447 24.1321C103.99 24.1321 102.643 24.9995 102.643 26.1348C102.643 27.2293 103.407 27.8698 105.466 28.0564L105.598 28.0681L105.818 28.0882L106.86 28.1861C107.939 28.2996 108.23 28.3725 108.23 28.7132C108.23 29.0293 107.947 29.1996 106.755 29.1996C105.831 29.1996 105.288 29.0618 105.092 28.8266C105.012 28.7293 104.954 28.5834 104.939 28.4861H102.604C102.628 28.6483 102.668 28.9077 102.758 29.1186C103.155 30.0104 104.192 30.6914 106.601 30.6914C109.188 30.6914 110.501 29.9618 110.501 28.6159Z" fill="white"/>
<path fill-rule="evenodd" clip-rule="evenodd" d="M53.8016 33.0315C51.9784 33.0315 51.0193 33.8958 51.0193 35.1658C51.0193 36.599 52.0258 37.3262 53.8016 37.3262C55.7568 37.3262 56.5788 36.4832 56.5788 35.1658C56.5788 33.8273 55.6514 33.0315 53.8016 33.0315ZM53.8016 36.2671C52.7636 36.2671 52.4632 35.8402 52.4632 35.1815C52.4632 34.5334 52.7899 34.1065 53.7964 34.1065C54.8977 34.1065 55.1455 34.586 55.1455 35.1815C55.1455 35.8138 54.8451 36.2671 53.8016 36.2671Z" fill="white"/>
<path d="M43.6624 35.9771C43.6624 35.2551 43.2039 34.8756 42.1341 34.7597C41.9602 34.7387 41.4491 34.686 41.1276 34.6597C40.3003 34.57 40.0526 34.5226 40.0526 34.3119C40.0526 34.1221 40.2476 34.0326 40.9907 34.0326C41.5176 34.0326 41.8127 34.1326 41.9287 34.2854C41.9866 34.3593 42.0076 34.4172 42.013 34.4752H43.5306C43.5148 34.3487 43.4621 34.1695 43.3778 34.0115C43.1037 33.4845 42.445 33.063 41.0275 33.063C39.4309 33.063 38.5561 33.6267 38.5561 34.3645C38.5561 35.076 39.0514 35.4923 40.3898 35.6134C40.5744 35.6293 41.017 35.6714 41.2963 35.6978C41.9972 35.7715 42.1868 35.819 42.1868 36.0403C42.1868 36.2458 42.0024 36.3565 41.2278 36.3565C40.627 36.3565 40.274 36.2669 40.1475 36.1141C40.0948 36.0508 40.0579 35.956 40.0474 35.8927H38.5297C38.5455 35.9982 38.5718 36.1667 38.6298 36.3038C38.8881 36.8834 39.5626 37.326 41.1276 37.326C42.8087 37.326 43.6624 36.8518 43.6624 35.9771Z" fill="white"/>
<path fill-rule="evenodd" clip-rule="evenodd" d="M33.1409 36.0931C33.1409 36.3777 33.0618 36.657 32.9037 36.8414C32.6613 37.1365 32.2081 37.2629 31.6233 37.2629H27.9503V33.1262H31.5231C32.0922 33.1262 32.4559 33.2633 32.6561 33.4688C32.8353 33.6479 32.9144 33.8851 32.9144 34.1538C32.9144 34.4227 32.8511 34.644 32.7141 34.8073C32.6033 34.9444 32.4137 35.0497 32.2135 35.0761C32.5085 35.1129 32.7878 35.2605 32.9459 35.466C33.0776 35.6188 33.1409 35.8507 33.1409 36.0931ZM31.365 34.644C31.4177 34.586 31.4494 34.5016 31.4494 34.4016C31.4494 34.3014 31.4177 34.2171 31.3492 34.1592C31.2755 34.0906 31.1384 34.0642 30.9381 34.0642H29.331V34.7388H30.9751C31.1542 34.7388 31.2913 34.7125 31.365 34.644ZM31.1279 36.325C31.3755 36.325 31.5231 36.2933 31.6074 36.2144C31.6601 36.1616 31.6812 36.0826 31.6812 35.9824C31.6812 35.877 31.6548 35.7981 31.5916 35.7348C31.5126 35.6663 31.3755 35.6346 31.1437 35.6346H29.331V36.325H31.1279Z" fill="white"/>
<path d="M38.103 36.2354V37.2629H33.745V33.1262H38.066V34.1592H35.1361V34.6914H37.9817V35.6979H35.1361V36.2354H38.103Z" fill="white"/>
<path d="M48.7902 33.1262V34.1644H47.0407V37.2629H45.597V34.1644H43.8527V33.1262H48.7902Z" fill="white"/>
<path d="M61.4009 33.1262V34.1749H58.5923V34.7599H61.2692V35.7981H58.5923V37.2629H57.1747V33.1262H61.4009Z" fill="white"/>
<path d="M68.5415 34.1644V33.1262H63.6039V34.1644H65.3482V37.2629H66.7921V34.1644H68.5415Z" fill="white"/>
<path d="M73.9283 33.1262V37.2629H72.516V35.7611H70.3975V37.2629H68.9854V33.1262H70.3975V34.6334H72.516V33.1262H73.9283Z" fill="white"/>
<path d="M79.1225 37.2629V36.2354H76.1556V35.6979H79.0012V34.6914H76.1556V34.1592H79.0856V33.1262H74.7645V37.2629H79.1225Z" fill="white"/>
<path d="M87.8589 33.1262H89.2231L87.7114 37.2629H86.1625C86.1625 37.2629 85.3344 34.7916 85.3288 34.7229C85.3247 34.7916 84.491 37.2629 84.491 37.2629H82.9476L81.3983 33.1262H82.9311C82.9311 33.1262 83.8282 35.7294 83.8282 35.7927C83.8282 35.7294 84.655 33.1262 84.655 33.1262H86.1364C86.1364 33.1262 86.9687 35.7294 86.9687 35.7927C86.9687 35.7294 87.8589 33.1262 87.8589 33.1262Z" fill="white"/>
<path fill-rule="evenodd" clip-rule="evenodd" d="M91.9298 33.0315C90.1067 33.0315 89.1476 33.8958 89.1476 35.1658C89.1476 36.599 90.1535 37.3262 91.9298 37.3262C93.8852 37.3262 94.7065 36.4832 94.7065 35.1658C94.7065 33.8273 93.7791 33.0315 91.9298 33.0315ZM91.9298 36.2671C90.8922 36.2671 90.5918 35.8402 90.5918 35.1815C90.5918 34.5334 90.9183 34.1065 91.9243 34.1065C93.0267 34.1065 93.2734 34.586 93.2734 35.1815C93.2734 35.8138 92.973 36.2671 91.9298 36.2671Z" fill="white"/>
<path fill-rule="evenodd" clip-rule="evenodd" d="M99.9248 33.5479C100.114 33.7429 100.203 34.0116 100.203 34.3857C100.203 34.7072 100.125 34.9812 99.9924 35.1657C99.8449 35.3659 99.6189 35.5346 99.3392 35.5766L100.588 37.2629H99.0181L97.9901 35.8033H96.7099V37.2629H95.303V33.1262H98.5964C99.2496 33.1262 99.6768 33.2844 99.9248 33.5479ZM98.7866 34.7335C98.8224 34.6703 98.8335 34.586 98.8335 34.5175C98.8335 34.4384 98.8224 34.3542 98.7866 34.3014C98.7122 34.1644 98.5647 34.1275 98.3429 34.1275H96.7154V34.8811H98.3691C98.5964 34.8811 98.7329 34.839 98.7866 34.7335Z" fill="white"/>
<path d="M104.988 37.2629V36.1616H102.469V33.1262H101.041V37.2629H104.988Z" fill="white"/>
<path fill-rule="evenodd" clip-rule="evenodd" d="M110.576 35.1181C110.576 35.7611 110.512 36.1089 110.323 36.4357C110.038 36.9572 109.475 37.2629 108.478 37.2629H105.549V33.1262H108.447C109.437 33.1262 110.023 33.4055 110.312 33.8851C110.518 34.2066 110.576 34.549 110.576 35.1181ZM108.21 36.2459C108.657 36.2459 108.911 36.1405 109.064 35.9087C109.159 35.7664 109.185 35.4344 109.185 35.1446C109.18 34.8811 109.148 34.6018 109.064 34.4753C108.9 34.2277 108.653 34.1381 108.221 34.1381H106.961V36.2459H108.21Z" fill="white"/>
<path d="M54.0477 57.3816H51.8641C51.8641 57.3816 50.4393 61.5467 50.4393 61.6478C50.4393 61.5467 49.1071 57.3816 49.1071 57.3816H46.7379C46.7379 57.3816 45.4142 61.5467 45.4142 61.6478C45.4142 61.5467 43.9809 57.3816 43.9809 57.3816H41.5273L44.0061 64.0001H46.4765C46.4765 64.0001 47.8086 60.0459 47.817 59.9363C47.8256 60.0459 49.1492 64.0001 49.1492 64.0001H51.6279L54.0477 57.3816Z" fill="white"/>
<path d="M57.0361 64.0001V57.3816H54.7174V64.0001H57.0361Z" fill="white"/>
<path d="M66.0546 57.3816V64.0001H63.795L60.5153 60.3157V64.0001H58.3401V57.3816H60.7176L63.8961 60.9818V57.3816H66.0546Z" fill="white"/>
<path d="M75.0864 64.0001V57.3816H72.928V60.9818L69.7495 57.3816H67.3718V64.0001H69.547V60.3157L72.8269 64.0001H75.0864Z" fill="white"/>
<path d="M83.3776 62.356V64.0001H76.4043V57.3816H83.3184V59.0341H78.6302V59.8857H83.1833V61.4961H78.6302V62.356H83.3776Z" fill="white"/>
<path fill-rule="evenodd" clip-rule="evenodd" d="M92.2893 59.3967C92.2893 58.7981 92.146 58.3681 91.8428 58.0561C91.4459 57.6346 90.7638 57.3816 89.7179 57.3816H84.4484V64.0001H86.7V61.6646H88.7492L90.3931 64.0001H92.9053L90.9071 61.3022C91.3536 61.2347 91.716 60.9649 91.953 60.6445C92.1625 60.3494 92.2893 59.9109 92.2893 59.3967ZM90.0969 59.6075C90.0969 59.7171 90.0803 59.852 90.0211 59.9531C89.937 60.1218 89.7179 60.1892 89.3555 60.1892H86.7083V58.9835H89.3128C89.6669 58.9835 89.9039 59.0425 90.0211 59.2618C90.0803 59.3461 90.0969 59.481 90.0969 59.6075Z" fill="white"/>
<path d="M47.3156 45.7043L46.4013 42.8901L45.4869 45.7043H42.5278L44.9217 47.4435L44.0074 50.2577L46.4013 48.5185L48.7951 50.2577L47.8807 47.4435L50.2746 45.7043H47.3156Z" fill="white"/>
<path d="M56.9573 42.8887L57.8904 45.7029H60.9097L58.4671 47.4422L59.4001 50.2562L56.9573 48.517L54.5146 50.2562L55.4477 47.4422L53.0049 45.7029H56.0243L56.9573 42.8887Z" fill="white"/>
<path d="M68.3628 45.7029L67.4299 42.8887L66.4968 45.7029H63.4773L65.9201 47.4422L64.9871 50.2562L67.4299 48.517L69.8725 50.2562L68.9395 47.4422L71.3823 45.7029H68.3628Z" fill="white"/>
<path d="M77.9021 42.8887L78.8352 45.7029H81.8546L79.4119 47.4422L80.3449 50.2562L77.9021 48.517L75.4595 50.2562L76.3925 47.4422L73.9497 45.7029H76.9692L77.9021 42.8887Z" fill="white"/>
<path d="M89.3736 45.7029L88.4586 42.8887L87.5436 45.7029H84.585L86.9786 47.4422L86.0649 50.2562L88.4586 48.517L90.8522 50.2562L89.9386 47.4422L92.3322 45.7029H89.3736Z" fill="white"/>
<path d="M127.762 12.7084C128.637 10.4836 128.257 7.92503 127.451 5.77339C126.602 3.50945 125.125 1.25129 122.917 0.0605469C122.807 2.44658 123.536 4.80368 124.332 6.92928C125.049 8.841 125.927 10.8777 127.378 12.4587C127.601 13.6565 127.772 14.8509 127.892 16.0399C127.411 14.7841 126.632 13.6395 125.659 12.719C124.407 11.5332 122.542 10.6185 120.794 11.1595C121.306 13.093 122.473 14.9467 123.857 16.247C124.946 17.2705 126.383 18.5818 128.075 18.6335C128.145 20.3837 128.105 22.1179 127.961 23.8286C127.722 22.5768 127.211 21.398 126.471 20.5203C125.455 19.3139 123.949 17.8404 122.027 18.0869C122.132 20.044 122.913 22.0492 124 23.5559C124.863 24.7532 126.004 26.2794 127.623 26.6737C127.364 28.3541 127.003 30.0068 126.544 31.624C126.54 30.3858 126.267 29.1702 125.724 28.1953C124.959 26.8205 123.767 25.1059 121.842 24.9718C121.56 26.8918 121.943 28.9907 122.715 30.66C123.331 31.9943 124.153 33.6959 125.651 34.3999C125.021 36.1404 124.277 37.8323 123.423 39.4651C123.723 38.0576 123.711 36.5744 123.357 35.2398C122.868 33.4004 121.655 31.4682 119.706 30.9076C119.017 32.9385 119.112 35.2045 119.513 37.2685C119.843 38.968 120.489 40.964 121.939 42.0679C120.991 43.5985 119.942 45.0673 118.797 46.4649C119.413 45.0943 119.717 43.5952 119.553 42.2228C119.315 40.2241 118.754 38.0864 116.713 37.0212C115.554 39.0193 115.286 41.2609 115.188 43.475C115.108 45.265 115.366 47.4729 116.61 48.9292C115.242 50.3505 113.767 51.6807 112.192 52.9074C113.209 51.6023 113.921 50.0709 114.072 48.5564C114.285 46.4165 114.182 44.0609 112.282 42.4904C110.658 44.1867 109.688 46.6849 109.214 48.8548C108.794 50.7731 108.356 53.0439 109.355 54.932C107.35 56.2414 105.208 57.3949 102.944 58.3719C104.537 57.2367 105.841 55.6791 106.462 54.071C107.277 51.9634 107.78 49.4519 106.195 47.341C104.07 48.7018 102.509 51.0234 101.278 53.141C100.223 54.958 99.1298 57.4659 99.6727 59.6298C98.4187 60.055 97.133 60.4285 95.817 60.7471L95.8956 61.0702C97.2157 60.7504 98.5069 60.3757 99.765 59.9492C100.647 62.5545 103.535 63.4155 105.871 63.7954C109.199 64.3368 113.162 63.2879 116.004 61.1744C114.503 59.0551 111.444 58.8402 109.137 58.678L109.107 58.6759C106.579 58.4983 103.845 58.7356 101.304 59.3961C104.239 58.2783 106.987 56.8728 109.521 55.2205L109.556 55.2756C110.944 57.5304 113.733 57.6185 115.921 57.4761C118.891 57.2829 122.318 55.4778 124.301 52.9826C122.435 51.3458 119.68 51.8037 117.544 52.1586L117.533 52.1605C115.151 52.5565 112.548 53.4204 110.362 54.7508C110.57 54.5869 110.773 54.4137 110.971 54.2319C113.096 52.7168 115.056 51.022 116.835 49.1741C116.859 49.1987 116.884 49.223 116.909 49.2471C118.64 50.9739 121.152 50.5183 123.114 49.9532C125.746 49.1953 128.475 46.9087 129.782 44.2838C127.755 43.1483 125.333 44.0838 123.449 44.8241C121.378 45.6371 119.188 46.9381 117.504 48.5968C117.678 48.3777 117.845 48.1487 118.002 47.9117C119.566 46.1455 120.974 44.2541 122.212 42.2588L122.265 42.292L122.279 42.3006C124.234 43.5591 126.45 42.6453 128.206 41.7465C130.589 40.5271 132.504 37.8472 133.331 35.2116C131.217 34.5346 129.129 35.8634 127.506 36.9158C125.728 38.0674 123.929 39.71 122.694 41.5939C122.785 41.408 122.87 41.2178 122.949 41.0242C124.135 38.954 125.143 36.7809 125.958 34.5266L126.001 34.5409L126.008 34.5436C127.787 35.2171 129.767 34.1661 131.058 33.0135C132.853 31.4106 134.119 28.9463 134.415 26.5387C132.56 26.2984 130.812 27.7338 129.617 28.9579C128.242 30.3678 127.006 32.0343 126.246 33.8855C126.303 33.6835 126.351 33.4783 126.391 33.2709C127.081 31.1532 127.605 28.9692 127.95 26.7365L128.002 26.7434C129.876 27.0468 131.61 25.6207 132.646 24.2365C134.104 22.2887 134.855 19.5928 134.666 17.1493C132.793 17.2805 131.366 19.0631 130.441 20.5054C129.369 22.1757 128.48 24.0662 128.092 26.044C128.104 25.8858 128.111 25.7268 128.114 25.5672C128.399 23.2945 128.501 20.9751 128.407 18.6273C130.321 18.5602 131.739 16.7831 132.47 15.2072C133.513 12.9531 133.681 10.1037 132.985 7.70248C131.162 8.21414 130.145 10.305 129.545 11.9147C128.854 13.7706 128.371 15.795 128.367 17.8075C128.268 16.1191 128.067 14.4173 127.762 12.7084Z" fill="white"/>
</svg>
