<svg width="157" height="64" viewBox="0 0 157 64" fill="none" xmlns="http://www.w3.org/2000/svg">
<path d="M78.6535 20.3634C79.3206 20.354 79.8877 20.2293 79.8785 19.5437V19.4408C79.8877 18.7582 79.3206 18.6335 78.6535 18.6243C77.9835 18.6335 77.4162 18.7582 77.4256 19.4408V19.5437C77.4162 20.2293 77.9835 20.354 78.6535 20.3634Z" fill="white"/>
<path d="M54.2674 18.9854C54.2674 18.7859 54.1085 18.627 53.909 18.627H51.9174V19.3407H53.909C54.0087 19.3407 54.0928 19.3063 54.1614 19.2378C54.2331 19.1661 54.2674 19.082 54.2674 18.9854Z" fill="white"/>
<path d="M65.4789 18.6182L66.0524 19.8556H64.9023L65.4789 18.6182Z" fill="white"/>
<path d="M91.067 18.6182L91.6407 19.8556H90.4904L91.067 18.6182Z" fill="white"/>
<path d="M50.3244 44.6738L49.4767 42.8447L48.6243 44.6738H50.3244Z" fill="white"/>
<path d="M70.3287 44.1485C70.3287 44.7705 69.9739 45.282 69.3474 45.282H66.7028V43.0151H69.3474C69.9739 43.0151 70.3287 43.522 70.3287 44.1485Z" fill="white"/>
<path d="M77.0287 42.8447L77.8765 44.6738H76.1763L77.0287 42.8447Z" fill="white"/>
<path d="M87.3304 42.8582C87.6252 42.8582 87.8602 43.0932 87.8602 43.388C87.8602 43.5308 87.8095 43.6553 87.7036 43.7612C87.6022 43.8626 87.4778 43.9133 87.3304 43.9133H84.3863V42.8582H87.3304Z" fill="white"/>
<path d="M97.0705 44.1485C97.0705 44.7705 96.7151 45.282 96.0884 45.282H93.4434V43.0151H96.0884C96.7151 43.0151 97.0705 43.522 97.0705 44.1485Z" fill="white"/>
<path d="M39.13 32.6038L36.0574 25.5095H30.7856V37.3333H34.6264V30.947L37.3978 37.3333H40.8321L43.6336 30.947V37.3333H47.4594V25.5095H42.3533L39.13 32.6038Z" fill="white"/>
<path d="M63.1353 37.3333V34.3961H54.6553V32.8598H62.7889V29.983H54.6553V28.4617H63.0299V25.5095H50.6789V37.3333H63.1353Z" fill="white"/>
<path d="M66.3748 35.2393C67.5497 36.7606 69.6433 37.5137 72.1587 37.5137C74.0477 37.5137 75.4323 37.1301 76.3969 36.5216C76.5629 36.4169 76.7165 36.3055 76.858 36.1883L76.9635 37.333H80.2018V30.3291H72.3394V32.8746H76.5418C76.5233 32.9951 76.459 33.1842 76.3667 33.3644C76.3091 33.477 76.2404 33.586 76.1652 33.6728C75.7284 34.185 74.5686 34.6368 73.0624 34.6368C71.4959 34.6368 70.4867 34.2302 69.9445 33.5976C69.583 33.1306 69.3721 32.4679 69.3721 31.4738C69.3721 30.4346 69.583 29.7266 69.9897 29.2597C70.5771 28.597 71.5712 28.3108 73.0323 28.3108C74.3427 28.3108 75.2465 28.612 75.6682 28.9886C75.9393 29.2145 76.1502 29.5308 76.1953 29.7417H80.0964C80.0909 29.6027 80.071 29.4327 80.0374 29.2519C79.98 28.9428 79.883 28.6013 79.75 28.3259C78.8161 26.4279 76.6472 25.2983 72.957 25.2983C69.7488 25.2983 67.5948 26.2773 66.405 27.7535C65.6217 28.7626 65.2603 30.0278 65.2603 31.4437C65.2603 33.0101 65.682 34.3507 66.3748 35.2393Z" fill="white"/>
<path d="M69.8622 31.4738C69.8622 30.4909 70.0631 29.9225 70.358 29.583C70.8014 29.0839 71.6106 28.8005 73.0325 28.8005C74.2968 28.8005 75.0534 29.096 75.3421 29.3539L75.3484 29.3594L75.3548 29.3648C75.4541 29.4476 75.5449 29.5496 75.6136 29.649C75.6814 29.7472 75.7086 29.8154 75.7153 29.8392H71.8498V33.3644H75.7846C75.6437 33.5236 75.3412 33.7224 74.8607 33.882C74.3823 34.0409 73.7685 34.147 73.0626 34.147C71.5743 34.147 70.7372 33.7618 70.3246 33.2879C70.055 32.9344 69.8622 32.3922 69.8622 31.4738Z" fill="white"/>
<path d="M90.435 29.8665L89.3128 32.0089H91.4952L90.435 29.8665Z" fill="white"/>
<path fill-rule="evenodd" clip-rule="evenodd" d="M93.5636 35.1492L94.603 37.3333H98.9561L92.9909 25.5095H88.1261L81.8151 37.3333H86.0777L87.1772 35.1492H93.5636ZM88.5026 32.4983L89.9938 29.6516L90.4457 28.5672L90.8674 29.6365L92.2836 32.4983H88.5026Z" fill="white"/>
<path fill-rule="evenodd" clip-rule="evenodd" d="M124.994 57.8062H124.987C124.903 57.8062 124.819 57.8058 124.736 57.8049V57.8062H32.6064C24.4766 57.8062 17.2249 54.0469 12.4947 48.1719H26.0687V46.4514H11.2229C9.00817 43.1808 7.52413 39.3751 7.00507 35.2686H26.0687V33.5483H6.84562C6.81528 33.0359 6.79994 32.5196 6.79994 31.9998C6.79994 28.5939 7.45969 25.3422 8.65849 22.3654H26.0687V20.645H9.42583C11.2496 16.9288 13.9406 13.7153 17.2352 11.2686H109.622C110.774 10.4133 112 9.65154 113.287 8.99477C112.94 9.17177 112.598 9.35626 112.26 9.54815H19.8732C23.6303 7.41278 27.9759 6.19336 32.6063 6.19336H124.736V6.19457C124.822 6.19372 124.908 6.19336 124.994 6.19336C139.246 6.19336 150.8 17.7472 150.8 31.9998C150.8 46.2523 139.246 57.8062 124.994 57.8062ZM134.589 44.1033C135.745 40.6224 136.434 36.4878 136.434 31.9998C136.434 27.8158 135.834 23.9391 134.818 20.6126C134.693 20.2065 134.563 19.8086 134.427 19.4193C134.2 18.7709 133.956 18.1466 133.698 17.5483C133.349 16.7403 132.974 15.9798 132.576 15.2718C130.693 11.9314 128.546 10.1323 126.542 9.52663V17.5483H131.812C132.258 18.4995 132.665 19.5354 133.025 20.645H126.542V30.4513H134.685C134.704 30.9617 134.714 31.478 134.714 31.9998C134.714 32.5216 134.704 33.0379 134.685 33.5482H126.542V43.3546H133.024C132.665 44.4642 132.258 45.5 131.812 46.4513H126.542V54.4731C128.546 53.8675 130.693 52.0683 132.576 48.7277C132.974 48.0198 133.35 47.2593 133.698 46.4513C134.019 45.7076 134.317 44.9236 134.589 44.1033ZM138.052 20.645C138.879 23.6342 139.389 26.9488 139.505 30.4513H147.651C147.411 26.896 146.353 23.565 144.665 20.645H138.052ZM142.512 17.5483H137.04C136.047 14.9459 134.794 12.6823 133.346 10.8755C136.943 12.2988 140.089 14.614 142.512 17.5483ZM123.446 9.5263V17.5483H116.289C116.637 16.7403 117.013 15.9798 117.412 15.2718C119.293 11.9308 121.442 10.1315 123.446 9.5263ZM116.641 10.8754C115.193 12.6822 113.941 14.9458 112.947 17.5483H107.474C109.898 14.6139 113.045 12.2986 116.641 10.8754ZM111.935 20.645H102.025V22.3654H104.423C103.258 24.8482 102.529 27.5764 102.336 30.4513H110.481C110.598 26.9488 111.108 23.6342 111.935 20.645ZM123.446 20.645H115.16C114.275 23.5495 113.709 26.872 113.581 30.4513H123.446V20.645ZM139.505 33.5482C139.389 37.0507 138.879 40.3653 138.052 43.3546H144.665C146.353 40.4346 147.411 37.1035 147.651 33.5482H139.505ZM115.16 43.3546C114.275 40.4501 113.709 37.1275 113.581 33.5482H123.446V43.3546H115.16ZM111.935 43.3546C111.108 40.3653 110.598 37.0507 110.481 33.5482H102.336C102.575 37.1035 103.633 40.4346 105.322 43.3546H111.935ZM137.04 46.4513C136.047 49.0537 134.794 51.3172 133.347 53.124C136.943 51.7006 140.089 49.3855 142.512 46.4513H137.04ZM116.289 46.4513H123.446V54.4734C121.442 53.8682 119.293 52.0689 117.412 48.7277C117.013 48.0198 116.637 47.2593 116.289 46.4513ZM112.947 46.4513L102.025 46.4514V48.1718H109.05C111.204 50.2955 113.779 51.9921 116.641 53.1242C115.193 51.3174 113.941 49.0538 112.947 46.4513ZM78.6532 17.2963C77.0761 17.2994 75.7858 17.7545 75.7921 19.3409V19.6464C75.7858 21.2297 77.0761 21.6878 78.6532 21.6909C80.2272 21.6878 81.5175 21.2297 81.5112 19.6464V19.3409C81.5112 17.7576 80.2302 17.2963 78.6532 17.2963ZM29.6579 17.3992V21.5881H31.2911V17.3992H29.6579ZM36.2436 19.6183L34.4047 17.3992H32.1575V21.5881H33.7907V19.0293L36.041 21.5881H37.8799V17.3992H36.2436V19.6183ZM42.022 18.7331V21.5944H40.3889V18.7331H38.4472V17.4055H43.9638V18.7331H42.022ZM44.5124 21.5944H49.415V20.5191H46.1455V19.983H49.415V19.0136H46.1455V18.4776H49.415V17.4055H44.5124V21.5944ZM50.2845 21.5912V17.4023H54.3207C55.1841 17.393 55.9165 18.1192 55.9041 18.9856C55.9041 19.3004 55.8199 19.5871 55.6516 19.8428C55.4864 20.0951 55.2652 20.2885 54.9909 20.4162L55.9041 21.5912H54.1649L53.3764 20.569H51.9178V21.5912H50.2845ZM60.4982 19.6183L58.6593 17.3992H56.4121V21.5881H58.0453V19.0293L60.2956 21.5881H62.1345V17.3992H60.4982V19.6183ZM64.0981 21.5944H62.2592L64.5063 17.4055H66.4481L68.6952 21.5944H66.8563L66.526 20.8775H64.4284L64.0981 21.5944ZM71.1886 21.5944V18.7331H73.1303V17.4055H67.6138V18.7331H69.5555V21.5944H71.1886ZM73.6789 21.5881V17.3992H75.3121V21.5881H73.6789ZM84.2478 17.3992L86.0867 19.6183V17.3992H87.723V21.5881H85.8841L83.6338 19.0293V21.5881H82.0006V17.3992H84.2478ZM87.8477 21.5944H89.6865L90.017 20.8775H92.1143L92.4453 21.5944H94.2837L92.037 17.4055H90.0949L87.8477 21.5944ZM94.4117 21.5881V17.3992H96.0448V20.2603H99.3143V21.5881H94.4117ZM33.8896 42.4803C33.1386 42.4803 32.2171 42.591 32.2171 43.0839C32.2171 43.3558 32.9681 43.3927 33.9403 43.4387L33.951 43.4392C35.6781 43.5267 38.0961 43.6492 38.0915 45.1987C38.0915 46.968 36.0643 47.3873 33.8896 47.3873C31.7196 47.3826 29.9181 47.12 29.6877 45.1987H32.2171C32.4935 45.6779 33.134 45.8023 33.8896 45.8023C34.6406 45.8023 35.5621 45.6779 35.5621 45.1987C35.5621 44.9269 34.8111 44.8854 33.839 44.8394L33.8282 44.8389C32.101 44.7514 29.683 44.6289 29.6877 43.0839C29.6877 41.3148 31.7149 40.8908 33.8896 40.8908C36.0597 40.9046 37.8611 41.1488 38.0915 43.0839H35.5621C35.2856 42.5955 34.6453 42.4803 33.8896 42.4803ZM43.4499 43.0149V47.2444H41.0357V43.0149H38.1653V41.0522H46.3203V43.0149H43.4499ZM44.7169 47.2444H47.4352L47.9236 46.1847H51.0244L51.5128 47.2444H54.2311L50.9092 41.0522H48.0388L44.7169 47.2444ZM57.742 41.0429L60.4603 44.3233V41.0429H62.8792V47.2352H60.1608L56.8343 43.4526V47.2352H54.42V41.0429H57.742ZM64.289 41.0522V47.2444H69.7995C71.4995 47.2674 72.762 45.83 72.7481 44.1482C72.762 42.4574 71.4995 41.0291 69.7995 41.0522H64.289ZM74.9873 47.2444H72.269L75.5909 41.0522H78.4613L81.7831 47.2444H79.0648L78.5764 46.1847H75.4757L74.9873 47.2444ZM81.972 41.0475V47.2398H84.3864V45.7286H86.5426L87.7082 47.2398H90.2791L88.9292 45.5028C89.3347 45.3139 89.6618 45.0283 89.9059 44.655C90.1548 44.2773 90.2791 43.8534 90.2791 43.388C90.2976 42.1072 89.2149 41.0337 87.9386 41.0475H81.972ZM91.0301 47.2444V41.0522H96.5402C98.2406 41.0291 99.503 42.4574 99.4897 44.1482C99.503 45.83 98.2406 47.2674 96.5402 47.2444H91.0301ZM47.9492 37.8229H43.1438V33.2827L41.1521 37.8229H37.0765L35.1162 33.3059V37.8229H30.2958V25.0195H36.379L39.1407 31.3959L42.0378 25.0195H47.9492V37.8229ZM63.625 37.8229H50.189V25.0195H63.5196V28.9513H55.145V29.493H63.2786V33.3494H55.145V33.9061H63.625V37.8229ZM80.692 37.8229H76.517L76.447 37.0627C75.4003 37.6572 73.9835 38.0037 72.159 38.0037C69.5634 38.0037 67.2921 37.2274 65.9882 35.5399C65.2124 34.5445 64.7707 33.0893 64.7707 31.4438C64.7707 29.9445 65.1543 28.5664 66.0183 27.4533L66.021 27.4496L66.0239 27.4462C67.3363 25.8179 69.6556 24.8086 72.9573 24.8086C76.731 24.8086 79.1362 25.9683 80.1898 28.1097L80.1906 28.1114L80.1914 28.113C80.4364 28.6204 80.5689 29.2907 80.5861 29.7222L80.5909 29.8394H80.692V37.8229ZM87.4796 35.6389L86.3801 37.8229H80.999L87.8329 25.0195H93.2939L99.7523 37.8229H94.2936L93.2552 35.6389H87.4796ZM29.5957 53.5912H99.7027V51.8707H29.5957V53.5912Z" fill="white"/>
<path fill-rule="evenodd" clip-rule="evenodd" d="M32.6064 0H124.994C142.666 0 156.994 14.3268 156.994 32C156.994 49.6732 142.666 64 124.994 64H32.6064C14.9332 64 0.606354 49.6732 0.606354 32C0.606354 14.3268 14.9332 0 32.6064 0ZM32.6064 3.09683C16.6435 3.09683 3.70318 16.0372 3.70318 32C3.70318 47.9628 16.6435 60.9033 32.6064 60.9033H124.994C140.956 60.9033 153.896 47.9628 153.896 32C153.896 16.0372 140.956 3.09683 124.994 3.09683H32.6064Z" fill="white"/>
</svg>
