<svg width="75" height="64" viewBox="0 0 75 64" fill="none" xmlns="http://www.w3.org/2000/svg">
<path d="M15.8319 56.5048H19.2397C19.2029 56.8479 19.1293 57.5221 18.8841 58.0002C18.1119 59.655 16.3345 60.5743 12.9636 60.5743C10.2668 60.5743 8.51392 59.9002 7.57007 58.7602C6.92039 58.0002 6.58937 56.946 6.58937 55.5977C6.58937 54.3719 6.89588 53.3545 7.50872 52.6067C8.48941 51.3809 10.2546 50.6455 13.0249 50.6455C16.8003 50.6455 18.3693 51.9939 18.9455 53.4281C19.1416 53.9306 19.2029 54.4945 19.2152 54.8009H15.8074C15.7951 54.5802 15.7093 54.2983 15.5623 54.0899C15.2067 53.5751 14.4222 53.1951 12.9881 53.1951C11.6888 53.1951 10.7449 53.5261 10.3158 54.2002C10.0952 54.5312 10.0094 55.0216 10.0094 55.6344C10.0094 56.2964 10.1197 56.75 10.3527 57.0809C10.8308 57.7918 11.8972 58.0615 13.0004 58.0615C14.2874 58.0615 15.2066 57.804 15.6112 57.2157C15.7584 57.0073 15.8197 56.7622 15.8319 56.5048Z" fill="white"/>
<path d="M29.7656 57.8652V60.4271H20.5844V50.8047H23.9063V57.8652H29.7656Z" fill="white"/>
<path d="M41.2081 60.4271V58.0368H34.3069V56.7865H40.9262V54.4452H34.3069V53.2072H41.1224V50.8047H31.0708V60.4271H41.2081Z" fill="white"/>
<path fill-rule="evenodd" clip-rule="evenodd" d="M51.3091 58.6497H46.1117L45.2169 60.4271H41.7479L46.884 50.8047H50.8432L55.6975 60.4271H52.1549L51.3091 58.6497ZM47.1904 56.4924H50.2674L49.115 54.1633L48.7717 53.293L48.404 54.1756L47.1904 56.4924Z" fill="white"/>
<path fill-rule="evenodd" clip-rule="evenodd" d="M68.0162 53.7343C68.0162 52.864 67.8079 52.2388 67.3662 51.7853C66.7904 51.1724 65.7969 50.8047 64.2779 50.8047H56.616V60.4271H59.8894V57.0317H62.8678L65.2578 60.4271H68.9113L66.0062 56.5046C66.6553 56.4065 67.1829 56.0143 67.5253 55.5484C67.832 55.1194 68.0162 54.482 68.0162 53.7343ZM64.8286 54.0407C64.8286 54.2001 64.8045 54.3963 64.7186 54.5433C64.5961 54.7885 64.2779 54.8866 63.7503 54.8866H59.901V53.1336H63.6886C64.2036 53.1336 64.547 53.2195 64.7186 53.5381C64.8045 53.6607 64.8286 53.8569 64.8286 54.0407Z" fill="white"/>
<path d="M49.9415 6.98025C49.9415 7.13968 49.9174 7.33576 49.8315 7.48284C49.709 7.72802 49.3898 7.8261 48.8629 7.8261H45.0139V6.07324H48.8015C49.3165 6.07324 49.6598 6.15899 49.8315 6.47775C49.9174 6.60034 49.9415 6.79642 49.9415 6.98025Z" fill="white"/>
<path d="M59.5246 9.43175H62.6013L61.4487 7.10268L61.1054 6.23242L60.7379 7.11503L59.5246 9.43175Z" fill="white"/>
<path fill-rule="evenodd" clip-rule="evenodd" d="M0.989428 6.95754C1.38632 3.04962 4.6867 0 8.69936 0H66.5009C70.7813 0 74.2506 3.46975 74.2506 7.74996V56.25C74.2506 60.5302 70.7813 64 66.5009 64H8.69936C4.41915 64 0.949402 60.5302 0.949402 56.25V7.74996C0.949402 7.48241 0.963001 7.21814 0.989428 6.95754ZM2.56396 21.6765L28.6119 30.486C29.3215 29.766 30.2871 29.1402 31.4488 28.6525C31.7158 28.5404 31.9915 28.4364 32.2745 28.3407L21.4146 17.322H29.9154L34.6876 27.7552C35.3178 27.6563 35.9657 27.5933 36.6224 27.5681C36.8409 27.5598 37.0593 27.5555 37.2774 27.5555V17.322H44.6391L39.8669 27.7554C40.6021 27.8708 41.3158 28.0354 41.9934 28.2476C42.8656 28.5208 43.6595 28.8666 44.3521 29.2724L64.7523 17.322H72.636V21.4581L42.7742 31.5576C42.1465 30.9206 41.2105 30.4071 40.0844 30.0818C38.9585 29.7566 37.6932 29.6342 36.4484 29.7301C35.2037 29.8261 34.0356 30.1362 33.0917 30.621C32.1478 31.106 31.4706 31.744 31.1456 32.4543C30.8207 33.1647 30.8627 33.9155 31.2662 34.612C31.6697 35.3084 32.4168 35.9192 33.4128 36.3669C34.4088 36.8145 35.6091 37.0791 36.8619 37.1272C37.5579 37.1539 38.253 37.1132 38.9197 37.0085C39.4526 36.9248 39.9679 36.8003 40.4508 36.6369L50.3477 46.6781H43.3432L39.8665 39.0783C38.1683 39.3448 36.3821 39.3443 34.6876 39.0784L31.2114 46.6781H24.2072L32.2744 38.4929C31.5191 38.2374 30.822 37.9245 30.202 37.5614L14.6393 46.6781H2.56396V45.1572L28.6118 36.3475C28.0125 35.7394 27.6018 35.0704 27.4049 34.3716C27.172 33.5455 27.2449 32.7028 27.6122 31.8998L2.56396 27.9681V21.6765ZM72.636 45.3754L37.2774 33.4167L72.636 38.9668V45.3754ZM72.636 48.2926H2.56396V56.25C2.56396 59.6385 5.31082 62.3853 8.69936 62.3853H66.5009C69.8892 62.3853 72.636 59.6385 72.636 56.25V48.2926ZM19.7597 9.65256V3.74424H16.4746V9.3583C16.4746 10.3635 15.543 11.0377 13.9741 11.0377C12.3314 11.0377 11.4366 10.388 11.4366 9.34605V3.74424H8.11469V9.34605C8.11469 12.2634 10.5051 13.5015 13.8392 13.5015C17.4063 13.5015 19.7597 12.2512 19.7597 9.65256ZM30.8233 13.3667V10.8047H24.964V3.74424H21.6421V13.3667H30.8233ZM40.6956 3.74424V6.15904H36.6261V13.3667H33.2673V6.15904H29.21V3.74424H40.6956ZM53.1283 6.67388C53.1283 5.80362 52.9199 5.17844 52.4792 4.72484C51.9034 4.112 50.91 3.74424 49.3899 3.74424H41.7289V13.3667H45.0017V9.97123H47.9804L50.3708 13.3667H54.0233L51.1183 9.44414C51.7683 9.34605 52.295 8.95379 52.6383 8.48804C52.945 8.05908 53.1283 7.42165 53.1283 6.67388ZM63.6431 11.5893H58.4455L57.5514 13.3667H54.0822L59.2181 3.74424H63.1773L68.0316 13.3667H64.489L63.6431 11.5893Z" fill="white"/>
</svg>
